<?xml version="1.0" encoding="UTF-8"?>
<svg id="Capa_2" data-name="Capa 2" xmlns="http://www.w3.org/2000/svg" viewBox="0 0 17.82 12.07">
  <defs>
    <style>
      .cls-1 {
        fill: #23ccfb;
      }
    </style>
  </defs>
  <g id="_03" data-name="03">
    <g>
      <path class="cls-1" d="m6.48,6.34c.83,0,1.58-.32,2.14-.84.45.31,1,.48,1.58.48,1.55,0,2.81-1.26,2.81-2.81S11.76.36,10.21.36c-.58,0-1.13.17-1.58.48-.56-.53-1.31-.84-2.14-.84-1.75,0-3.17,1.42-3.17,3.17s1.42,3.17,3.17,3.17Zm0-5.62c.61,0,1.18.23,1.61.6.51.45.84,1.11.84,1.85s-.32,1.39-.84,1.85c-.43.37-1,.6-1.61.6-1.35,0-2.45-1.1-2.45-2.45S5.13.72,6.48.72Z"/>
      <path class="cls-1" d="m17.63,11.34c-.35-1.12-.99-2.11-1.83-2.89-1.17-1.1-2.74-1.76-4.47-1.76-.85,0-1.67.17-2.42.46-.75-.3-1.56-.46-2.42-.46-2.97,0-5.48,1.96-6.31,4.65-.07.24-.14.48-.17.72h17.82c-.04-.25-.11-.48-.19-.72Zm-11.01,0H1.78c.76-1.85,2.59-3.15,4.71-3.15.2,0,.4.01.6.04.65.08,1.26.27,1.81.58.34.17.66.39.95.64.58.52,1.05,1.17,1.35,1.9h-4.58Z"/>
    </g>
  </g>
</svg>