<?xml version="1.0" encoding="UTF-8"?>
<svg id="Capa_2" data-name="Capa 2" xmlns="http://www.w3.org/2000/svg" viewBox="0 0 44.6 43.56">
  <defs>
    <style>
      .cls-1 {
        fill: #fff;
      }

      .cls-2 {
        fill: #fdde96;
      }

      .cls-3 {
        fill: #23ccfb;
      }
    </style>
  </defs>
  <g id="_03" data-name="03">
    <g>
      <g>
        <path class="cls-3" d="m40.46,30.62c-.22-.26-.49-.47-.8-.62s-.59-.28-.85-.48c-4.1-3.1-6.75-8.01-6.75-13.54h0c0-.4.04-.79.13-1.17.22-.89.33-1.83.34-2.79v-.04c0-6.3-4.85-11.47-11.02-11.97h-1.98c-6.17.5-11.02,5.67-11.02,11.97v.04c0,.96.12,1.9.34,2.79.09.38.13.77.13,1.17h0c0,5.54-2.65,10.45-6.75,13.55-.26.2-.55.34-.85.48-.31.15-.58.36-.8.62-.36.42-.57.96-.57,1.56,0,1.33,1.08,2.41,2.41,2.41h36.21c1.33,0,2.41-1.08,2.41-2.41,0-.59-.21-1.14-.57-1.56Z"/>
        <path class="cls-2" d="m20.08,43.56h-.04c-3.51-.01-6.06-1.54-7.26-2.45-.93-.7-1.11-2.02-.41-2.94.7-.93,2.02-1.11,2.94-.41.79.59,2.45,1.59,4.75,1.6h.03c2.31,0,3.98-1,4.77-1.6.93-.7,2.24-.51,2.94.41.7.93.51,2.24-.41,2.94-1.21.92-3.77,2.45-7.3,2.45Z"/>
      </g>
      <g>
        <circle class="cls-1" cx="33.51" cy="11.1" r="11.1"/>
        <circle cx="33.51" cy="11.1" r="6.78"/>
      </g>
    </g>
  </g>
</svg>