<?xml version="1.0" encoding="UTF-8"?>
<svg id="Capa_2" data-name="Capa 2" xmlns="http://www.w3.org/2000/svg" viewBox="0 0 91.35 85.73">
  <defs>
    <style>
      .cls-1 {
        fill: #fff;
      }

      .cls-2 {
        fill: #fdde96;
      }

      .cls-3 {
        fill: #23ccfb;
      }
    </style>
  </defs>
  <g id="_03" data-name="03">
    <g>
      <path class="cls-2" d="m63.48,0H21.71c-3.39,0-6.13,2.75-6.13,6.13v41.77c0,3.39,2.75,6.13,6.13,6.13h41.77c3.39,0,6.13-2.75,6.13-6.13V6.13c0-3.39-2.75-6.13-6.13-6.13Zm-4.93,21.1l-9.81,11.95c-.9,1.1-2.23,1.75-3.65,1.79-1.41.04-2.78-.53-3.75-1.57l-1.48-1.6-11.06,13.31c-.61.73-1.48,1.11-2.36,1.11-.69,0-1.39-.23-1.96-.71-1.3-1.08-1.48-3.02-.4-4.32l11.95-14.39c.9-1.09,2.23-1.73,3.64-1.77,1.4-.04,2.77.53,3.73,1.57l1.47,1.59,8.92-10.86c1.07-1.31,3.01-1.5,4.32-.42,1.31,1.08,1.5,3.01.42,4.32Z"/>
      <path class="cls-1" d="m55.73,44.42c-.19-4.47-3.82-7.95-8.3-7.95H8.31C3.83,36.46.2,39.95.01,44.42c-.01.16-.01.28-.01.36v29.21c0,.08,0,.22.01.38.2,4.45,3.84,7.93,8.3,7.93h39.11c4.47,0,8.1-3.48,8.3-7.93.01-.16.01-.3.01-.38v-29.21c0-.08,0-.21-.01-.37Z"/>
      <g>
        <path d="m3.34,62.9v11.09c0,.07,0,.13,0,.19.1,2.66,2.29,4.78,4.97,4.78h39.11c2.68,0,4.87-2.12,4.97-4.78,0-.07,0-.13,0-.19v-11.09H3.34Zm41.4,8.89c0,1.33-1.07,2.4-2.41,2.4H12.83c-1.33,0-2.41-1.07-2.41-2.4v-4.74h34.32v4.74Z"/>
        <path d="m52.4,53.03v-8.24c0-.06,0-.12,0-.18-.09-2.67-2.28-4.8-4.97-4.8H8.31c-2.68,0-4.88,2.13-4.97,4.8,0,.06,0,.12,0,.18v8.24h49.05Zm-41.97-6.02c0-1.33,1.07-2.4,2.41-2.4h29.51c1.33,0,2.41,1.07,2.41,2.4v2.4H10.42v-2.4Z"/>
      </g>
      <path class="cls-1" d="m91.31,82.44c-.15-.92-.4-1.89-.78-3.03-1.33-4.32-3.87-8.33-7.32-11.52-3.86-3.63-8.7-5.93-13.91-6.72,2.98-2.36,4.9-6.01,4.9-10.09,0-7.11-5.78-12.89-12.89-12.89-1.88,0-3.7.4-5.37,1.16-2.32-1.59-5.08-2.45-7.96-2.45-7.82,0-14.18,6.36-14.18,14.18,0,4.56,2.17,8.61,5.52,11.21-7.82,2.68-14.07,8.93-16.62,17.19-.28.94-.56,1.92-.72,3.01-.12.82.12,1.64.66,2.26.54.62,1.32.98,2.15.98h63.71c.83,0,1.62-.36,2.16-1s.77-1.47.64-2.29Z"/>
      <g>
        <path class="cls-3" d="m48,62.41c2.97,0,5.66-1.14,7.67-3.02,1.63,1.11,3.56,1.73,5.66,1.73,5.55,0,10.05-4.49,10.05-10.05s-4.49-10.05-10.05-10.05c-2.09,0-4.03.62-5.66,1.73-2.01-1.89-4.7-3.02-7.67-3.02-6.25,0-11.34,5.09-11.34,11.34s5.09,11.34,11.34,11.34Zm0-20.09c2.2,0,4.21.83,5.76,2.14,1.83,1.63,3,3.98,3,6.61s-1.16,4.98-3,6.61c-1.55,1.32-3.56,2.14-5.76,2.14-4.83,0-8.75-3.93-8.75-8.75s3.93-8.75,8.75-8.75Z"/>
        <path class="cls-3" d="m87.84,80.31c-1.24-4-3.54-7.54-6.56-10.33-4.18-3.93-9.79-6.3-15.99-6.3-3.05,0-5.97.59-8.65,1.65-2.69-1.08-5.58-1.65-8.65-1.65-10.61,0-19.6,7.02-22.57,16.63-.26.85-.49,1.7-.62,2.58h63.71c-.15-.88-.39-1.73-.67-2.58Zm-39.38,0h-17.3c2.71-6.61,9.25-11.26,16.84-11.26.72,0,1.45.05,2.14.13,2.32.28,4.49.98,6.48,2.07,1.21.62,2.35,1.39,3.38,2.27,2.09,1.86,3.77,4.18,4.83,6.79h-16.37Z"/>
      </g>
    </g>
  </g>
</svg>