<?xml version="1.0" encoding="UTF-8"?>
<svg id="Capa_2" data-name="Capa 2" xmlns="http://www.w3.org/2000/svg" viewBox="0 0 15.06 16.42">
  <defs>
    <style>
      .cls-1 {
        fill: #23ccfb;
      }
    </style>
  </defs>
  <g id="_01" data-name="01">
    <g>
      <path d="m8.65,15.11c.16,0,.32,0,.47,0,.09,0,.15-.07.14-.16,0-.09-.06-.14-.16-.14-.07,0-.14,0-.21,0-.08,0-.15,0-.23,0-.1,0-.15.05-.16.14,0,.09.05.15.14.16Z"/>
      <path d="m9.56,15.42c-.3,0-.6,0-.89,0-.1,0-.16.06-.16.15,0,.09.07.15.18.15.14,0,.29,0,.43,0,.15,0,.29,0,.44,0,.1,0,.16-.05.17-.15,0-.08-.06-.16-.16-.16Z"/>
      <g>
        <path d="m6.47,13.61c-.29,0-.58,0-.87,0-.11,0-.17.06-.17.16,0,.1.07.14.17.14.14,0,.29,0,.43,0s.29,0,.44,0c.1,0,.16-.04.17-.15,0-.09-.06-.15-.17-.16Z"/>
        <path d="m13.16,6.5c.22,0,.45,0,.67,0,.12,0,.2-.08.2-.17,0-.1-.08-.17-.2-.17-.11,0-.22,0-.33,0s-.22,0-.33,0c-.12,0-.2.07-.2.17,0,.1.07.17.19.18Z"/>
        <path d="m12.14,3.43c.12-.19.23-.38.34-.58.06-.1.03-.21-.05-.26-.09-.05-.19-.02-.25.09-.06.09-.11.19-.17.28-.06.09-.11.19-.17.28-.06.1-.04.21.05.26.08.05.19.02.25-.08Z"/>
        <path d="m8.39,8.47c-.09,0-.17,0-.26,0h0c-.08,0-.15,0-.23,0-.17,0-.28.11-.3.28-.01.12-.01.23,0,.35.02.17.13.27.3.28.15,0,.3,0,.45,0,.18,0,.3-.13.3-.32,0-.1,0-.2,0-.31,0-.16-.11-.27-.27-.28Zm-.04.59h-.44v-.28h.44v.28Z"/>
        <path d="m8.8,2.14c.1,0,.17-.08.17-.2,0-.11,0-.22,0-.33s0-.22,0-.33c0-.12-.07-.2-.17-.2-.1,0-.17.07-.18.19,0,.22,0,.45,0,.67,0,.12.08.2.17.2Z"/>
        <path d="m5.58,3.4c.09.07.2.07.26,0,.06-.08.05-.18-.04-.26-.08-.07-.17-.14-.25-.21s-.17-.14-.25-.21c-.09-.07-.2-.07-.26,0s-.05.18.04.26c.17.15.34.29.51.43Z"/>
        <path d="m4.66,6.32c0-.1-.08-.17-.2-.17-.11,0-.22,0-.33,0s-.22,0-.33,0c-.12,0-.2.07-.2.17s.07.17.19.18c.22,0,.45,0,.67,0,.12,0,.2-.08.2-.17Z"/>
        <path d="m8.8,6.55c.12,0,.22-.1.22-.22s-.1-.22-.22-.22-.22.1-.22.22.1.22.22.22Z"/>
        <path d="m5.58,13.31c.15,0,.31,0,.46,0,.09,0,.15-.06.14-.16,0-.09-.06-.14-.15-.15-.08,0-.15,0-.23,0-.07,0-.14,0-.21,0-.09,0-.15.05-.16.14,0,.09.05.16.15.16Z"/>
        <path d="m2.59,4.18c-.11,0-.22,0-.33,0-.11,0-.22,0-.33,0-.12,0-.2.07-.2.17,0,.1.07.17.19.18.22,0,.45,0,.67,0,.12,0,.2-.08.2-.17,0-.1-.08-.17-.2-.17Z"/>
        <path d="m2.64,3.02c-.57,0-1.13,0-1.7,0-.14,0-.23.07-.23.18,0,.11.08.17.23.17.28,0,.56,0,.84,0,.29,0,.58,0,.87,0,.08,0,.15-.02.19-.1.06-.13-.03-.25-.2-.25Z"/>
        <path class="cls-1" d="m13.83,14.3c.26,0,.52,0,.77,0,.27,0,.46-.19.46-.47,0-1.09,0-2.19,0-3.28,0-.17-.07-.31-.2-.41-.27-.19-.54-.38-.8-.57,0,0-.02-.01-.03-.02.03.02.43-.82.46-.89.7-1.57.67-3.42-.04-4.99-.19-.43-.43-.83-.71-1.21-.42-.55-.92-1.03-1.49-1.41C11.08.27,9.65-.1,8.24.02c-1.19.11-2.34.56-3.27,1.3-.17.14-.34.29-.5.44-.92,0-1.85,0-2.77,0-.21,0-.33.06-.34.17,0,.11.11.17.33.17.05,0,.09,0,.14,0h2.31c-.73.83-1.23,1.83-1.44,2.93-.12.68-.14,1.35-.05,2.03-.02,0-.03-.02-.05-.02-.23,0-.45,0-.68,0-.11,0-.19.07-.19.17,0,.1.08.17.2.18.11,0,.23,0,.34,0s.22,0,.33,0c.04,0,.08-.02.11-.03.13.72.38,1.4.77,2.04.01.02.03.04.04.06h-.89s-.09,0-.14,0c-.09.01-.14.07-.15.16,0,.1.05.16.14.18.04,0,.08,0,.11,0h1.15c.05.07.11.15.16.22.05.06.1.12.15.18-.02,0-.03,0-.05,0-.28,0-.48.08-.59.34v3.25c.05.15.16.25.29.34.23.16.46.32.68.49.12.09.26.13.41.13.6,0,1.2,0,1.81,0h.13c0,.19,0,.37,0,.54,0,.19.07.33.23.44.25.17.5.35.74.53.13.1.27.14.43.14,1.71,0,3.42,0,5.13,0,.33,0,.54-.21.53-.53,0-.48,0-.96,0-1.44v-.12s.02-.02.03-.02Zm.41-4.23s.1.08.17.13c-.04,0-.07.01-.1.01-.26,0-.52,0-.78,0-.13,0-.27,0-.4,0-.05,0-.11-.02-.15-.05-.13-.09-.26-.18-.38-.27-.04-.03-.09-.06-.13-.1,0,0,0-.02,0-.03.08,0,.16,0,.23,0,.19,0,.38,0,.57,0,.21-.02.39,0,.57.06.14.05.27.13.4.25Zm-4.56,1.35c0,.21,0,.42,0,.62v.13h-.4s0-.08,0-.11c0-.2,0-.39,0-.59,0-.06,0-.12,0-.18,0-.16-.06-.29-.19-.38-.28-.2-.55-.41-.84-.6-.09-.06-.21-.09-.32-.1-.23-.01-.47,0-.71,0v-2.09h4.36v1.34h-.12c-.42,0-.84.01-1.26,0-.32-.01-.54.22-.53.52.01.48,0,.96,0,1.44Zm-.55-3.63s-.07,0-.1,0c-.61,0-1.23,0-1.84,0-.05,0-.1-.02-.14-.04-.18-.12-.36-.25-.53-.38,0,0,0-.02.01-.03.65,0,1.29,0,1.94,0,.03,0,.07.01.09.03.19.13.37.26.57.41Zm-.05-.41s0-.02.01-.02c.49,0,.98,0,1.47,0,.04,0,.08.01.11.03.04.03.08.06.12.09.09.06.18.13.28.2.06.04.11.08.17.12-.05,0-.09,0-.12,0-.04,0-.08,0-.12,0-.13,0-.26,0-.39,0-.28,0-.57,0-.85,0-.06,0-.12-.02-.17-.05-.18-.12-.35-.25-.52-.37Zm-2.2.64s.03.05.03.08c0,.55,0,1.1,0,1.65,0,.12,0,.24,0,.36v.06s0,.02,0,.04h-.74v-2.7c.25.18.48.34.72.51Zm-.33,2.51c.46,0,.91,0,1.37,0,.06,0,.13.02.18.06.17.11.34.24.5.36,0,0,0,.02-.01.02-.5,0-1,0-1.49,0-.03,0-.06-.01-.08-.03-.18-.13-.36-.26-.56-.4.05,0,.07-.01.1-.01Zm3.45-.61c.16.11.29.23.44.31.25.13.32.31.3.58,0,.11-.01.21-.01.32,0,.3,0,.61,0,.91v.13h-.74v-2.25Zm.55,2.56c.62,0,1.25,0,1.87,0,.07,0,.16.03.22.07.17.11.34.24.51.36,0,0,0,.01,0,.02h-.74c-.42,0-.84,0-1.26,0-.06,0-.13-.02-.17-.06-.18-.12-.35-.25-.52-.39h.1Zm.38-2.28c-.19-.13-.38-.27-.6-.42.05,0,.08,0,.11,0,.46,0,.92,0,1.38,0,.04,0,.09,0,.13.03.14.1.28.2.43.3.04.03.09.06.13.09-.04,0-.06.01-.08.01h-.17c-.41,0-.83,0-1.24,0-.03,0-.07,0-.09-.01Zm-7.14-2.29c-.18-.54-.28-1.11-.28-1.71,0-1.69.79-3.19,2.02-4.16.32-.26.68-.47,1.06-.65.68-.31,1.43-.49,2.22-.48,2.93,0,5.28,2.36,5.29,5.29,0,1.23-.42,2.36-1.12,3.26-.31,0-.63,0-.94,0h-.13v-.14c0-.38,0-.76,0-1.14,0-.21-.07-.37-.25-.49-.15-.1-.3-.2-.44-.31-.09-.07-.19-.13-.28-.2,0,0,0,0,0,0-.03-.03-.07-.05-.1-.06l-2.54-.06h-1.9c-.35,0-.53.18-.53.53,0,.65,0,1.3,0,1.95v.68c-.17,0-.33,0-.5,0-.17-.15-.33-.3-.48-.47-.1-.11-.2-.23-.29-.35-.08-.11-.16-.22-.24-.34-.23-.36-.42-.74-.56-1.15Zm.69,6.36s0,0-.01.03c-.23-.17-.46-.32-.67-.49-.03-.03-.05-.09-.05-.14,0-.98,0-1.96,0-2.94,0-.01,0-.02.01-.04.03.01.05.02.07.04.2.14.4.28.6.43.03.02.07.07.07.1,0,1,0,2,0,3.01Zm.12-3.36c-.17-.11-.33-.24-.52-.37.04,0,.07-.01.1-.01h.17c.47,0,.93,0,1.4,0h.07s.09,0,.12.03c.18.13.36.26.57.41-.01,0-.02,0-.03,0-.05,0-.07,0-.1,0-.52,0-1.05,0-1.57,0,0,0-.01,0-.02,0-.06,0-.13-.02-.19-.06Zm2.15,1.81v1.73h-1.95v-3.16h4.15v.89h-.14c-.51,0-1.01,0-1.52,0-.05,0-.09,0-.14,0-.28.04-.41.21-.41.53Zm1.05,3.24c-.24-.17-.47-.33-.69-.5-.03-.02-.05-.07-.05-.11,0-.9,0-1.8,0-2.72.12.08.23.16.33.23.12.08.24.16.35.25.03.03.06.08.06.12,0,.89,0,1.77,0,2.66,0,.01,0,.03,0,.07Zm-.38-3.48h.1c.75,0,1.51,0,2.26,0,.06,0,.13.02.18.06.18.12.35.25.53.37,0,0,0,.02,0,.02h-1.04c-.44,0-.87,0-1.31,0-.07,0-.14-.03-.2-.06-.17-.12-.34-.24-.5-.39Zm6.07,3.42c0,.16-.05.21-.2.21-1.7,0-3.39,0-5.09,0-.03,0-.05,0-.08,0v-2.86h5.37s0,.07,0,.1c0,.85,0,1.7,0,2.56Zm.05-3.08c-.24-.16-.47-.33-.7-.5-.14-.1-.28-.15-.45-.15-.4,0-.81,0-1.21,0h-.13v-1.65h3.71v.12c0,1.03,0,2.07,0,3.1,0,.21-.03.24-.25.24-.23,0-.46,0-.71,0,0-.23,0-.45,0-.66,0-.22-.07-.38-.26-.51Z"/>
        <path d="m.23,6.56c.22,0,.43,0,.65,0,.34,0,.67,0,1.01,0,.06,0,.14-.06.18-.11.02-.03.01-.13-.02-.16-.04-.04-.12-.07-.18-.07-.27,0-.54,0-.82,0s-.54,0-.82,0C.07,6.21,0,6.27,0,6.38c0,.11.08.18.23.18Z"/>
        <path d="m12.05,11.04c-.16,0-.32,0-.49,0-.09,0-.14.06-.14.15,0,.09.06.15.15.15.07,0,.14,0,.21,0,.08,0,.17,0,.25,0,.09,0,.14-.06.14-.15,0-.08-.04-.15-.13-.15Z"/>
        <path d="m0,5.19c0,.11.07.17.22.17.55,0,1.1,0,1.64,0,.14,0,.22-.07.22-.17,0-.11-.09-.17-.23-.18-.27,0-.54,0-.8,0s-.55,0-.83,0c-.14,0-.22.06-.22.17Z"/>
        <path d="m.93,8.56c.57,0,1.13,0,1.7,0,.14,0,.22-.07.22-.17,0-.11-.08-.17-.22-.17-.28,0-.56,0-.84,0-.29,0-.58,0-.87,0-.13,0-.21.07-.21.17,0,.11.08.18.22.18Z"/>
      </g>
    </g>
  </g>
</svg>