<?xml version="1.0" encoding="UTF-8"?>
<svg id="Capa_2" data-name="Capa 2" xmlns="http://www.w3.org/2000/svg" viewBox="0 0 11.6 16.6">
  <defs>
    <style>
      .cls-1 {
        fill: #23ccfb;
      }
    </style>
  </defs>
  <g id="_01" data-name="01">
    <g>
      <path class="cls-1" d="m.19,7.29s.01.03.02.05c.06.21.13.41.2.6.23.63.51,1.26.83,1.89l.02.03s.07,0,.11,0c0,0,0-.01-.01-.02,0-.01-.01-.03-.02-.04h0s0-.01,0-.01c-.11-.22-.22-.44-.31-.65l.28-.17c.11.22.21.45.33.67,0,0,0,.01.01.02h0s.07.13.1.19c3.33-.19,6.7-1.05,9.33-3.09,0-.03,0-.07.01-.11,0-.03,0-.05,0-.07,0,0,0-.01,0-.01v-.03h0v-.02s0-.05.01-.07c.02-.19.03-.37.03-.55v-.03l.33-.03v.06c0,.19,0,.38-.03.57l.14-.12c.02-.18.03-.35.03-.53,0-3.2-2.6-5.81-5.81-5.81S0,2.6,0,5.81c0,.51.07,1.01.19,1.48h0Zm.5,1.09c-.05-.14-.11-.27-.15-.4-.05-.13-.1-.27-.14-.41l.32-.08c.04.13.08.25.13.37.04.11.08.23.13.35l-.29.17Zm10.71-3.36l-.33.03c-.05-.27-.11-.52-.19-.77l.31-.13c.09.28.16.57.21.87Zm-.97-2.38c.17.24.32.49.45.76l-.31.12c-.12-.23-.25-.46-.41-.67l.26-.21Zm-1.18-1.23c.23.18.45.37.65.59l-.25.21c-.18-.19-.37-.36-.58-.52l.18-.27Zm-1.48-.83c.27.11.54.23.79.37l-.19.28c-.22-.13-.46-.24-.71-.33l.1-.32Zm-.79-.23l-.09.32c-.25-.05-.51-.09-.77-.1V.23c.29.02.58.05.86.11Zm-1.68-.1v.33c-.26.02-.51.07-.76.13l-.1-.31c.28-.07.57-.12.86-.15Zm.49,2.52c1.53,0,2.78,1.24,2.78,2.78s-1.25,2.78-2.78,2.78-2.78-1.25-2.78-2.78,1.25-2.78,2.78-2.78ZM3.66.65l.1.31c-.24.1-.47.21-.69.35l-.19-.27c.25-.15.51-.28.77-.39Zm-1.44.86l.19.27c-.19.16-.38.34-.55.53l-.26-.21c.19-.21.4-.41.62-.59Zm-1.13,1.25l.26.2c-.14.21-.27.43-.37.66l-.31-.12c.12-.26.26-.51.42-.74Zm-.72,1.51l.31.12c-.07.24-.13.49-.17.74l-.33-.03c.04-.29.1-.57.18-.83Zm-.24,1.65l.33.03c0,.25.02.5.06.75l-.32.07c-.05-.28-.07-.57-.07-.85Z"/>
      <path d="m11.57,6.48h0c-.26.27-.53.51-.82.74-.33.26-.68.51-1.04.74-2.11,1.31-4.61,1.91-7.07,2.03-.43.02-.87.02-1.3.01h0s0,0,0,0c1.64,3.17,4.11,6.16,4.47,6.59.02-.02.05-.05.05-.05.17-.18.56-.63.65-.74.39-.46.98-1.19,1.62-2.06,1.12-1.55,2.58-3.86,3.17-6.07h0c.13-.38.22-.78.27-1.19,0,0,0,0,0-.01Z"/>
    </g>
  </g>
</svg>