<?xml version="1.0" encoding="UTF-8"?>
<svg id="Capa_2" data-name="Capa 2" xmlns="http://www.w3.org/2000/svg" viewBox="0 0 216.3 172.5">
  <defs>
    <style>
      .cls-1 {
        fill: #fff;
      }

      .cls-2 {
        fill: #fdde96;
      }

      .cls-3 {
        fill: #23ccfb;
      }
    </style>
  </defs>
  <g id="_06" data-name="06">
    <g>
      <path class="cls-3" d="m166.03,139.75h-34.55c-1,0-1.81-.81-1.81-1.81h0c0-1,.81-1.81,1.81-1.81h34.38v-67.14c5.6-1.6,9.74-6.17,10.74-12.09,1.09-6.48-1.95-12.71-7.75-15.85l-5.04-2.73L99.27,3.28l-2.64-1.44c-2.23-1.21-4.74-1.84-7.26-1.84-2.75,0-5.45.74-7.81,2.17l-2.01,1.21L12.85,43.36l-5.21,3.12C1.95,49.91-.8,56.29.61,62.75c1.21,5.53,5.14,9.72,10.35,11.29v62.08h33.93c1,0,1.81.81,1.81,1.81h0c0,1-.81,1.81-1.81,1.81H10.86c-6.22,1.46-10.86,7.04-10.86,13.68,0,7.77,6.33,14.08,14.08,14.08h148.66c7.77,0,14.08-6.31,14.08-14.08,0-6.62-4.6-12.19-10.79-13.68Zm-112.08-18.24c0,4-3.24,7.24-7.24,7.24s-7.26-3.24-7.26-7.24v-31.77c0-4,3.26-7.26,7.26-7.26,1.93,0,3.75.76,5.14,2.13,1.37,1.37,2.11,3.2,2.11,5.14v31.77Zm41.72,0c0,4-3.26,7.24-7.26,7.24s-7.24-3.24-7.24-7.24v-31.77c0-4,3.24-7.26,7.24-7.26,1.93,0,3.77.76,5.15,2.13,1.35,1.37,2.11,3.2,2.11,5.14v31.77Zm27.2,0v-31.77c0-4,3.26-7.26,7.26-7.26,1.93,0,3.75.76,5.13,2.13,1.37,1.37,2.11,3.2,2.11,5.14v31.77c0,4-3.24,7.24-7.24,7.24s-7.26-3.24-7.26-7.24Z"/>
      <g id="mfnMvA.tif">
        <g>
          <path class="cls-1" d="m166.74,170c-.57,0-1.14,0-1.71-.03-25.28-.86-45.16-21.42-45.25-46.8.07-25.89,21.07-46.93,46.81-46.93h.39c26.33.22,46.89,20.86,46.82,46.98-.07,26.23-20.74,46.78-47.05,46.78Z"/>
          <path class="cls-1" d="m166.59,78.74c.12,0,.25,0,.37,0,25,.21,44.41,19.82,44.34,44.47-.07,24.94-19.85,44.29-44.55,44.29-.54,0-1.08,0-1.63-.03-24.32-.83-42.75-20.74-42.84-44.31.07-25.02,20.29-44.42,44.31-44.42m0-5h0c-13.04,0-25.34,5.07-34.65,14.27-9.42,9.31-14.62,21.79-14.66,35.13.1,26.76,21.04,48.41,47.67,49.32.6.02,1.2.03,1.8.03,27.71,0,49.48-21.64,49.55-49.27.08-27.51-21.58-49.25-49.3-49.48h-.41Z"/>
        </g>
      </g>
      <g id="mfnMvA.tif-2" data-name="mfnMvA.tif">
        <g>
          <path class="cls-2" d="m122.28,123.17c.06-25.15,20.5-44.63,44.68-44.42,25,.21,44.41,19.82,44.34,44.47-.07,25.5-20.72,45.13-46.18,44.27-24.32-.83-42.76-20.74-42.84-44.31Zm39.06,10.33s0,0,0,0c0,1.46-.07,2.92.02,4.37.07,1.17-.4,1.14-1.21.75-1.41-.69-2.72-1.47-3.84-2.64-2.24-2.34-5.59-2.45-7.83-.38-2.21,2.05-2.3,5.44-.19,7.83,3.15,3.59,7.23,5.55,11.79,6.6.97.22,1.18.61,1.3,1.45.44,3.1,2.53,4.84,5.66,4.78,2.79-.05,4.91-2.05,5.17-4.97.06-.69.21-1.07.96-1.22,4.05-.81,7.66-2.52,10.75-5.28,5.78-5.17,6.91-13.14,1.79-19.33-3.22-3.9-7.52-6.02-12.37-7.11-.67-.15-1.11-.24-1.1-1.04.02-3.08.01-6.15,0-9.23,0-.72.28-.83.89-.57,1.46.61,2.8,1.38,3.91,2.53,2.34,2.42,5.83,2.59,8.1.42,2.26-2.16,2.27-5.43-.08-7.95-2.99-3.2-6.74-5.15-10.97-6.18-1.13-.28-1.82-.5-1.93-1.95-.19-2.5-2.73-4.5-5.3-4.55-2.55-.05-5.08,1.88-5.39,4.44-.17,1.42-.79,1.75-2.03,2.06-4.33,1.07-8.15,3.11-11.17,6.47-4.35,4.83-4.91,11.28-1.31,16.64,3.03,4.54,7.48,7.04,12.7,8.24,1.21.28,1.92.63,1.73,2.07-.16,1.22-.03,2.48-.03,3.72Z"/>
          <path class="cls-2" d="m172.23,134.12c0-1.24.02-2.47,0-3.71-.01-.62.15-.95.82-.69,1.68.65,3.23,1.48,4.32,2.98.81,1.11.73,2.17-.11,3.23-1.07,1.36-2.56,2.11-4.09,2.78-.67.3-.97.04-.95-.72.04-1.29.01-2.58.01-3.87Z"/>
          <path class="cls-2" d="m161.34,112.07c0,1.24,0,2.47,0,3.71,0,.61,0,1.09-.88.72-1.6-.68-3.11-1.45-4.2-2.88-.65-.85-.84-1.76-.3-2.7,1.06-1.83,2.83-2.73,4.72-3.45.71-.27.65.3.65.73,0,1.29,0,2.58,0,3.87,0,0,0,0,.01,0Z"/>
        </g>
      </g>
    </g>
  </g>
</svg>