<?xml version="1.0" encoding="UTF-8"?>
<svg id="Capa_2" data-name="Capa 2" xmlns="http://www.w3.org/2000/svg" viewBox="0 0 143.16 17.83">
  <defs>
    <style>
      .cls-1 {
        fill: #f49c31;
      }

      .cls-2 {
        fill: #fb6020;
      }

      .cls-3 {
        fill: #e70c26;
      }

      .cls-4 {
        fill: #e3a34a;
      }

      .cls-5 {
        fill: #fff;
      }

      .cls-6 {
        fill: #6d2cd0;
      }

      .cls-7 {
        fill: #232f63;
      }

      .cls-8 {
        fill: #2968ac;
      }

      .cls-9 {
        fill: #263d7e;
      }

      .cls-10 {
        fill: #249bd4;
      }

      .cls-11 {
        fill: #1078a3;
        fill-rule: evenodd;
      }
    </style>
  </defs>
  <g id="_06" data-name="06">
    <g>
      <g>
        <rect class="cls-6" width="16.83" height="16.83" rx="3" ry="3"/>
        <g id="g110">
          <path id="path112" class="cls-5" d="m11.79,12.18s-.01-.01-.02-.02c0,0-.01,0-.02-.02-.31-.32-.56-.71-.75-1.14-.03-.07-.09-.11-.17-.11h-3.47l4.25-5.44s.04-.07.04-.11v-1.06c0-.1-.08-.18-.18-.18h-2.29v-1.52s-.04-.09-.09-.09h-1.41c-.05,0-.09.04-.09.09v1.52h-2.25c-.1,0-.18.08-.18.18v1.23c0,.1.08.18.18.18h3.9l-4.22,5.39s-.04.07-.04.11v1.11c0,.1.08.18.18.18h2.43v1.52c0,.05.04.09.09.09h1.41c.05,0,.09-.04.09-.09v-1.52h2.48c.07,0,.14-.04.17-.11.03-.07.01-.15-.04-.2"/>
        </g>
      </g>
      <g>
        <path class="cls-8" d="m42.19,13.8h-2.89l1.81-11.11h2.89l-1.81,11.11Zm-5.32-11.11l-2.76,7.64-.33-1.65h0s-.97-4.99-.97-4.99c0,0-.12-1-1.37-1h-4.56l-.05.19s1.39.29,3.02,1.27l2.51,9.65h3.01l4.6-11.11h-3.11Zm22.75,11.11h2.66l-2.32-11.11h-2.32c-1.07,0-1.33.83-1.33.83l-4.31,10.28h3.01l.6-1.65h3.68l.34,1.65h0Zm-3.18-3.93l1.52-4.16.85,4.16h-2.37Zm-4.22-4.51l.41-2.39s-1.27-.48-2.6-.48c-1.44,0-4.84.63-4.84,3.68,0,2.87,4,2.91,4,4.41s-3.59,1.24-4.77.29l-.43,2.49s1.29.63,3.26.63,4.95-1.02,4.95-3.8-4.04-3.16-4.04-4.41c0-1.26,2.82-1.09,4.05-.41h0Z"/>
        <path class="cls-4" d="m33.78,8.68l-.97-5s-.12-1-1.37-1h-4.56l-.05.19s2.19.45,4.29,2.16c2.01,1.63,2.66,3.65,2.66,3.65Z"/>
      </g>
      <g>
        <g>
          <circle class="cls-3" cx="77.92" cy="8.14" r="5.65"/>
          <circle class="cls-1" cx="84.75" cy="8.14" r="5.65"/>
          <path class="cls-2" d="m81.33,3.63c1.36,1.03,2.24,2.67,2.24,4.5s-.88,3.47-2.24,4.51c-1.36-1.03-2.24-2.67-2.24-4.51s.88-3.47,2.24-4.5Z"/>
        </g>
        <g>
          <path d="m74.81,15.73v2.08h-.27v-1.55l-.69,1.55h-.19l-.69-1.55v1.55h-.27v-2.08h.29l.77,1.72.77-1.72h.29Z"/>
          <path d="m75.28,16.54c.07-.13.16-.23.28-.3.12-.07.25-.1.4-.1s.27.03.38.09c.11.06.18.14.24.23v-.3h.28v1.64h-.28v-.31c-.05.1-.13.17-.24.24-.11.06-.23.09-.37.09s-.28-.04-.4-.11-.21-.17-.28-.3c-.07-.13-.1-.28-.1-.44s.03-.32.1-.44Zm1.21.12c-.05-.09-.12-.16-.2-.21s-.18-.07-.28-.07-.2.02-.28.07-.15.12-.2.21c-.05.09-.08.2-.08.32s.02.24.08.33c.05.09.12.16.2.21.08.05.18.07.28.07s.2-.02.28-.07c.08-.05.15-.12.2-.21.05-.09.08-.2.08-.33s-.03-.23-.08-.32Z"/>
          <path d="m77.55,17.77c-.1-.04-.18-.1-.24-.18-.06-.08-.09-.17-.1-.27h.28c0,.08.05.15.12.2.07.05.16.08.27.08.1,0,.19-.02.25-.07.06-.05.09-.1.09-.17s-.03-.12-.1-.16c-.06-.04-.16-.07-.3-.1-.12-.03-.22-.06-.3-.1-.08-.03-.14-.08-.2-.15-.06-.07-.08-.15-.08-.26,0-.08.03-.16.08-.23.05-.07.12-.12.21-.17s.2-.06.32-.06c.18,0,.33.05.44.14.11.09.17.22.18.38h-.27c0-.09-.04-.15-.1-.21-.06-.05-.15-.08-.25-.08-.1,0-.18.02-.23.06-.06.04-.09.1-.09.17,0,.05.02.1.05.13.04.03.08.06.13.08.05.02.13.04.22.07.12.03.21.06.29.09.07.03.14.08.19.14.05.06.08.14.08.24,0,.09-.03.17-.08.24s-.12.13-.21.17c-.09.04-.2.06-.31.06-.13,0-.24-.02-.34-.06Z"/>
          <path d="m79.2,16.39v.97c0,.08.02.14.05.17s.09.05.18.05h.2v.23h-.25c-.15,0-.27-.04-.34-.11-.08-.07-.11-.18-.11-.34v-.97h-.21v-.22h.21v-.41h.27v.41h.43v.22h-.43Z"/>
          <path d="m81.45,17.09h-1.31c0,.16.07.29.17.38.1.09.22.14.37.14.12,0,.22-.03.29-.08.08-.06.13-.13.17-.22h.29c-.04.16-.13.29-.26.39-.13.1-.3.15-.49.15-.16,0-.3-.04-.42-.11s-.22-.17-.29-.3c-.07-.13-.11-.28-.11-.45s.03-.32.1-.45c.07-.13.16-.23.29-.29s.26-.1.42-.1.29.03.41.1c.12.07.21.16.28.28.06.12.1.25.1.4,0,.05,0,.11,0,.17Zm-.34-.49c-.05-.07-.11-.13-.19-.17s-.17-.06-.26-.06c-.14,0-.25.04-.35.13-.1.09-.15.21-.17.37h1.04c0-.1-.02-.19-.07-.27Z"/>
          <path d="m82.3,16.21c.09-.05.2-.08.33-.08v.28h-.07c-.31,0-.46.17-.46.5v.89h-.27v-1.64h.27v.27c.05-.09.12-.17.21-.22Z"/>
          <path d="m82.98,16.21c.09-.16.22-.29.38-.38.16-.09.33-.14.53-.14.23,0,.43.06.6.17.17.11.29.27.37.47h-.33c-.06-.13-.14-.22-.25-.29-.11-.07-.24-.1-.39-.1s-.28.03-.39.1c-.12.07-.21.17-.27.29-.07.12-.1.27-.1.44s.03.31.1.44c.07.12.16.22.27.29.12.07.25.1.39.1s.28-.03.39-.1c.11-.07.19-.16.25-.29h.33c-.08.2-.2.35-.37.46-.17.11-.37.16-.6.16-.19,0-.37-.04-.53-.14-.16-.09-.28-.22-.38-.38-.09-.16-.14-.34-.14-.55s.05-.39.14-.55Z"/>
          <path d="m85.26,16.54c.07-.13.16-.23.28-.3.12-.07.25-.1.4-.1s.27.03.38.09c.11.06.18.14.24.23v-.3h.28v1.64h-.28v-.31c-.05.1-.13.17-.24.24-.11.06-.23.09-.37.09s-.28-.04-.4-.11-.21-.17-.28-.3c-.07-.13-.1-.28-.1-.44s.03-.32.1-.44Zm1.21.12c-.05-.09-.12-.16-.2-.21s-.18-.07-.28-.07-.2.02-.28.07-.15.12-.2.21c-.05.09-.08.2-.08.32s.02.24.08.33c.05.09.12.16.2.21.08.05.18.07.28.07s.2-.02.28-.07c.08-.05.15-.12.2-.21.05-.09.08-.2.08-.33s-.03-.23-.08-.32Z"/>
          <path d="m87.77,16.21c.09-.05.2-.08.33-.08v.28h-.07c-.31,0-.46.17-.46.5v.89h-.27v-1.64h.27v.27c.05-.09.12-.17.21-.22Z"/>
          <path d="m88.41,16.54c.07-.13.16-.23.28-.3.12-.07.25-.1.4-.1.13,0,.25.03.36.09.11.06.19.14.25.23v-.87h.28v2.22h-.28v-.31c-.05.1-.13.18-.24.24-.11.06-.23.09-.37.09s-.28-.04-.4-.11-.21-.17-.28-.3c-.07-.13-.1-.28-.1-.44s.03-.32.1-.44Zm1.21.12c-.05-.09-.12-.16-.2-.21s-.18-.07-.28-.07-.2.02-.28.07-.15.12-.2.21c-.05.09-.08.2-.08.32s.02.24.08.33c.05.09.12.16.2.21.08.05.18.07.28.07s.2-.02.28-.07c.08-.05.15-.12.2-.21.05-.09.08-.2.08-.33s-.03-.23-.08-.32Z"/>
        </g>
      </g>
      <g>
        <path class="cls-11" d="m118.25,11.53c0,.45-.28.65-.79.65h-.97v-.45h.97c.09,0,.16-.01.19-.04.03-.03.06-.07.06-.13s-.03-.12-.06-.15c-.03-.03-.09-.04-.18-.04-.46-.01-1.04.01-1.04-.64,0-.3.19-.62.71-.62h1v.45h-.92c-.09,0-.15,0-.19.03-.04.04-.07.09-.07.16s.04.12.1.15c.06.01.12.03.19.03h.27c.28,0,.46.06.58.16.09.1.15.24.15.45Z"/>
        <path class="cls-11" d="m116.16,11.09c-.12-.1-.3-.16-.58-.16h-.27c-.07,0-.13-.01-.19-.03-.06-.03-.1-.07-.1-.15s.01-.12.07-.16c.04-.03.1-.03.19-.03h.92v-.45h-1c-.54,0-.71.33-.71.62,0,.65.58.62,1.04.64.09,0,.15.01.18.04.03.03.06.09.06.15s-.03.1-.06.13c-.04.03-.1.04-.19.04h-.97v.45h.97c.51,0,.79-.21.79-.65,0-.21-.06-.34-.15-.45h0Z"/>
        <polygon class="cls-11" points="114.25 11.76 113.08 11.76 113.08 11.34 114.22 11.34 114.22 10.92 113.08 10.92 113.08 10.54 114.25 10.54 114.25 10.11 112.59 10.11 112.59 12.19 114.25 12.19 114.25 11.76 114.25 11.76"/>
        <path class="cls-11" d="m111.95,11.22c.13-.04.36-.22.36-.55,0-.24-.09-.37-.25-.46-.16-.09-.36-.1-.61-.1h-1.14v2.08h.51v-.76h.54c.18,0,.28.02.36.09.09.1.09.28.09.42v.25h.49v-.4c0-.19-.01-.28-.07-.39-.04-.06-.13-.13-.25-.18Zm-.3-.25c-.07.03-.15.03-.24.03l-.61.02v-.48h.61c.09,0,.18,0,.24.04.06.03.1.09.1.18s-.04.16-.1.21Z"/>
        <path class="cls-11" d="m109.23,10.11h-1.59l-.64.68-.61-.68h-2.01v2.08h1.98l.64-.68.61.68h.97v-.7h.62c.43,0,.86-.12.86-.7s-.45-.68-.83-.68Zm-3.12,1.65h-1.23v-.42h1.1v-.42h-1.1v-.39h1.25l.55.61-.56.61Zm1.98.25l-.77-.86.77-.82v1.68Zm1.14-.94h-.65v-.54h.65c.18,0,.3.07.3.25s-.12.28-.3.28Z"/>
        <path class="cls-11" d="m116.36,6.52v1.44l-.88-1.44h-.77v1.96l-.83-1.96h-.74l-.71,1.64h-.22c-.13,0-.27-.03-.34-.1-.09-.1-.13-.27-.13-.49s.04-.39.13-.48c.1-.09.21-.12.39-.12h.48v-.45h-.48c-.34,0-.61.07-.76.24-.22.22-.27.51-.27.82,0,.37.09.61.25.79.18.18.49.24.73.24h.58l.19-.46h1.04l.19.46h1.01v-1.56l.94,1.56h.71v-2.08h-.51Zm-3.21,1.17l.34-.82.34.82h-.68Z"/>
        <polygon class="cls-11" points="110.97 6.52 110.46 6.52 110.46 8.61 110.97 8.61 110.97 6.52 110.97 6.52"/>
        <path class="cls-11" d="m109.82,7.64c.13-.06.36-.22.36-.55,0-.24-.1-.37-.27-.48-.16-.09-.34-.09-.59-.09h-1.14v2.08h.49v-.76h.54c.18,0,.3.01.37.09.09.1.07.28.07.4v.27h.51v-.42c0-.18-.01-.27-.09-.37-.04-.06-.13-.13-.24-.18Zm-.3-.27c-.07.04-.15.04-.25.04h-.61v-.46h.61c.09,0,.19,0,.25.03.06.04.09.1.09.19s-.03.16-.09.19Z"/>
        <polygon class="cls-11" points="107.82 8.17 106.66 8.17 106.66 7.76 107.8 7.76 107.8 7.33 106.66 7.33 106.66 6.96 107.82 6.96 107.82 6.52 106.15 6.52 106.15 8.61 107.82 8.61 107.82 8.17 107.82 8.17"/>
        <path class="cls-11" d="m104.96,6.52l-.61,1.41-.65-1.41h-.8v1.96l-.85-1.96h-.74l-.89,2.08h.54l.19-.46h1.04l.19.46h1.01v-1.64l.73,1.64h.43l.73-1.64v1.64h.51v-2.08h-.82Zm-3.64,1.17l.34-.82.34.82h-.68Z"/>
        <path class="cls-11" d="m118.13,0h-17.73v7.49l.61-1.38h1.29l.18.34v-.34h1.52l.34.74.33-.74h4.83c.22,0,.42.04.56.16v-.16h1.32v.16c.22-.12.51-.16.83-.16h1.92l.18.34v-.34h1.41l.21.34v-.34h1.38v2.91h-1.4l-.27-.45v.45h-1.74l-.19-.48h-.43l-.19.48h-.91c-.36,0-.62-.09-.8-.18v.18h-2.16v-.67c0-.09-.01-.1-.07-.1h-.07v.77h-4.16v-.37l-.15.37h-.88l-.15-.36v.36h-1.68l-.18-.48h-.43l-.19.48h-.86v8.78h17.73v-5.34c-.19.09-.46.13-.73.13h-1.29v-.18c-.15.12-.42.18-.67.18h-4.07v-.67c0-.09-.01-.09-.09-.09h-.07v.76h-1.34v-.79c-.22.1-.48.1-.7.1h-.15v.68h-1.63l-.39-.45-.43.45h-2.63v-2.91h2.68l.39.45.42-.45h1.8c.21,0,.55.03.7.18v-.18h1.61c.16,0,.48.03.68.18v-.18h2.42v.18c.13-.12.39-.18.61-.18h1.35v.18c.15-.1.36-.18.62-.18h.92V0h0Z"/>
      </g>
      <g>
        <path class="cls-9" d="m132.49,17l.3-1.94-.68-.02h-3.24l2.25-14.29c.01-.09.09-.16.18-.16h5.47c1.82,0,3.07.38,3.72,1.12.31.35.5.72.6,1.12.1.42.1.93,0,1.54v.04s0,.39,0,.39l.31.17c.23.12.44.28.62.47.26.3.43.68.5,1.13.07.46.05,1.01-.07,1.64-.14.72-.37,1.34-.67,1.86-.27.46-.63.86-1.06,1.17-.41.29-.89.51-1.43.65-.53.14-1.13.21-1.79.21h-.43c-.3,0-.6.11-.83.31-.23.2-.39.47-.43.77l-.03.17-.54,3.41-.02.13s-.02.06-.03.07c-.02.01-.04.02-.06.02h-2.63Z"/>
        <path class="cls-10" d="m141.69,4.47c-.02.1-.03.21-.06.32-.72,3.7-3.19,4.98-6.34,4.98h-1.6c-.39,0-.71.28-.77.66l-.82,5.21-.23,1.48c-.04.22.12.43.34.47.02,0,.04,0,.06,0h2.85c.34,0,.62-.24.68-.58l.03-.14.54-3.4.03-.19c.05-.33.34-.58.68-.58h.43c2.76,0,4.92-1.12,5.55-4.36.26-1.35.13-2.48-.57-3.28-.22-.25-.48-.45-.78-.6h0Z"/>
        <path class="cls-7" d="m140.93,4.17c-.23-.07-.46-.12-.7-.16-.47-.07-.94-.11-1.41-.1h-4.29c-.34,0-.62.25-.68.58l-.91,5.78-.03.17c.06-.38.39-.66.77-.66h1.6c3.15,0,5.62-1.28,6.34-4.98.02-.11.04-.22.06-.32-.19-.1-.39-.18-.59-.25-.05-.02-.11-.03-.16-.05h0Z"/>
        <path class="cls-9" d="m133.86,4.49c.05-.33.34-.58.68-.58h4.29c.51,0,.98.03,1.41.1.29.05.58.11.86.21.21.07.41.15.59.25.21-1.37,0-2.3-.74-3.14-.82-.93-2.29-1.33-4.17-1.33h-5.47c-.38,0-.71.28-.77.66l-2.28,14.44c-.04.26.13.5.39.54.02,0,.05,0,.07,0h3.38l.85-5.38.91-5.78Z"/>
      </g>
    </g>
  </g>
</svg>