<?xml version="1.0" encoding="UTF-8"?>
<svg id="Capa_2" data-name="Capa 2" xmlns="http://www.w3.org/2000/svg" viewBox="0 0 141.86 134.32">
  <defs>
    <style>
      .cls-1 {
        fill: #fff;
      }

      .cls-2 {
        fill: #fdde96;
      }

      .cls-3 {
        fill: #23ccfb;
      }

      .cls-4 {
        fill: #3fa73c;
      }
    </style>
  </defs>
  <g id="_06" data-name="06">
    <g>
      <g id="mfnMvA.tif">
        <g>
          <path class="cls-1" d="m67.28,131.82c-.79,0-1.57-.01-2.36-.04-34.87-1.19-62.29-29.55-62.42-64.55C2.6,31.53,31.56,2.5,67.06,2.5h.54c36.32.31,64.69,28.77,64.59,64.8-.1,36.18-28.61,64.53-64.91,64.53Z"/>
          <path class="cls-1" d="m67.06,5c.17,0,.34,0,.52,0,35.02.29,62.2,27.76,62.11,62.29-.1,34.94-27.8,62.03-62.41,62.03-.76,0-1.51-.01-2.28-.04-34.06-1.16-59.88-29.05-60-62.06.1-35.05,28.42-62.22,62.06-62.22m0-5h0c-17.73,0-34.47,6.9-47.13,19.41C7.13,32.08.05,49.05,0,67.21c.14,36.39,28.62,65.84,64.83,67.07.81.03,1.64.04,2.45.04,18.11,0,35.04-6.88,47.66-19.36,12.68-12.54,19.7-29.47,19.75-47.66C134.79,29.88,105.34.32,67.62,0h-.56Z"/>
        </g>
      </g>
      <g id="mfnMvA.tif-2" data-name="mfnMvA.tif">
        <g>
          <path class="cls-2" d="m5,67.23c.09-35.23,28.71-62.51,62.58-62.22,35.01.29,62.2,27.76,62.1,62.28-.1,35.71-29.02,63.22-64.68,62-34.07-1.16-59.89-29.05-60.01-62.06Zm54.71,14.46s0,0,0,0c0,2.04-.1,4.09.03,6.12.1,1.64-.56,1.6-1.69,1.05-1.98-.96-3.82-2.06-5.38-3.7-3.13-3.27-7.83-3.43-10.97-.53-3.1,2.87-3.22,7.62-.27,10.97,4.41,5.02,10.13,7.78,16.51,9.24,1.35.31,1.65.85,1.82,2.03.61,4.35,3.54,6.78,7.92,6.7,3.91-.07,6.88-2.87,7.24-6.96.09-.96.29-1.5,1.34-1.7,5.67-1.13,10.73-3.53,15.05-7.4,8.1-7.25,9.67-18.4,2.5-27.07-4.51-5.46-10.53-8.43-17.33-9.96-.94-.21-1.55-.33-1.55-1.45.03-4.31.02-8.61,0-12.92,0-1.01.39-1.16,1.25-.8,2.05.85,3.92,1.94,5.48,3.55,3.28,3.38,8.17,3.63,11.34.59,3.17-3.03,3.18-7.61-.11-11.13-4.19-4.49-9.45-7.21-15.36-8.66-1.59-.39-2.55-.69-2.7-2.73-.26-3.5-3.82-6.31-7.42-6.37-3.57-.07-7.11,2.63-7.55,6.22-.24,1.98-1.11,2.46-2.84,2.89-6.07,1.5-11.41,4.36-15.65,9.06-6.09,6.76-6.87,15.8-1.84,23.31,4.25,6.35,10.47,9.85,17.79,11.54,1.69.39,2.69.88,2.42,2.91-.23,1.71-.05,3.47-.05,5.21Z"/>
          <path class="cls-2" d="m74.97,82.56c0-1.73.03-3.46-.01-5.2-.02-.87.21-1.34,1.15-.97,2.35.91,4.52,2.07,6.05,4.17,1.13,1.56,1.02,3.05-.15,4.52-1.5,1.9-3.59,2.95-5.73,3.9-.94.42-1.36.06-1.33-1.01.06-1.81.02-3.61.02-5.42Z"/>
          <path class="cls-2" d="m59.71,51.68c0,1.73,0,3.46,0,5.2,0,.85,0,1.53-1.23,1-2.25-.95-4.36-2.04-5.89-4.03-.91-1.2-1.17-2.47-.41-3.78,1.48-2.56,3.97-3.83,6.6-4.83.99-.38.91.43.91,1.02,0,1.81,0,3.61,0,5.42,0,0,.01,0,.02,0Z"/>
        </g>
      </g>
      <g>
        <rect class="cls-1" x="76.75" y="92.02" width="46.22" height="29.75"/>
        <g>
          <path class="cls-1" d="m141.86,82.37v27.98c0,3.91-3.18,7.09-7.08,7.09h-40.37c-3.91,0-7.09-3.18-7.09-7.09v-27.98c0-3.91,3.18-7.09,7.09-7.09h13.22v-5.58c0-3.67,2.98-6.65,6.64-6.65,1.78,0,3.45.69,4.7,1.95,1.25,1.26,1.95,2.93,1.95,4.7v5.58h13.86c3.91,0,7.08,3.18,7.08,7.09Z"/>
          <path class="cls-1" d="m122.97,119.53h-35.59c-2.38,0-4.31-1.93-4.31-4.3v-21.05c0-1.24-1-2.24-2.24-2.24h-3.09c-3.91,0-7.09,3.18-7.09,7.09v27.98c0,3.91,3.18,7.09,7.09,7.09h40.37c3.91,0,7.09-3.18,7.09-7.09v-5.25c0-1.24-1-2.24-2.24-2.24Z"/>
        </g>
        <g>
          <path class="cls-4" d="m134.77,77.52h-16.09v15.34l6.91-6.91c1.58-1.58,4.14-1.58,5.72,0,1.58,1.58,1.58,4.14,0,5.72l-8.35,8.34-4.7,4.7-1.14,1.14c-.76.76-1.79,1.18-2.86,1.18s-2.1-.42-2.86-1.18l-1.14-1.14-10.54-10.54-2.5-2.5c-1.58-1.58-1.58-4.14,0-5.72,1.58-1.58,4.14-1.58,5.72,0l6.91,6.92v-15.35h-15.46c-2.68,0-4.85,2.17-4.85,4.85v27.98c0,2.68,2.17,4.85,4.85,4.85h40.37c2.68,0,4.85-2.17,4.85-4.85v-27.98c0-2.68-2.17-4.85-4.85-4.85Z"/>
          <path class="cls-3" d="m87.38,121.76h35.59v5.25c0,2.68-2.17,4.85-4.85,4.85h-40.37c-2.68,0-4.85-2.17-4.85-4.85v-27.98c0-2.68,2.17-4.85,4.85-4.85h3.09v21.05c0,3.61,2.93,6.54,6.54,6.54Z"/>
          <path class="cls-4" d="m118.68,69.7v7.82h-8.82v-7.82c0-2.44,1.97-4.41,4.41-4.41,1.22,0,2.32.49,3.12,1.29s1.29,1.9,1.29,3.12Z"/>
        </g>
      </g>
    </g>
  </g>
</svg>