<?xml version="1.0" encoding="UTF-8"?>
<svg id="Capa_2" data-name="Capa 2" xmlns="http://www.w3.org/2000/svg" viewBox="0 0 59.34 59.01">
  <defs>
    <style>
      .cls-1 {
        fill: #23ccfb;
      }
    </style>
  </defs>
  <g id="_02" data-name="02">
    <g>
      <path d="m59.34,13.65v10.05H0v-10.05c0-2.95,2.39-5.34,5.34-5.34h5.88V.97c0-.53.44-.97.97-.97h4.06c.54,0,.97.44.97.97v7.34h24.52V.97c0-.53.44-.97.98-.97h4.05c.54,0,.97.44.97.97v7.34h6.25c2.95,0,5.34,2.39,5.34,5.34Z"/>
      <path class="cls-1" d="m0,30.13v23.54c0,2.95,2.39,5.34,5.34,5.34h48.65c2.95,0,5.34-2.39,5.34-5.34v-23.54H0Zm26.95,22.21c0,.47-.38.85-.85.85h-11.03c-.47,0-.85-.38-.85-.85v-4.3c0-.47.38-.85.85-.85h11.03c.47,0,.85.38.85.85v4.3Zm0-12.25c0,.47-.38.85-.85.85h-11.03c-.47,0-.85-.38-.85-.85v-4.3c0-.47.38-.85.85-.85h11.03c.47,0,.85.38.85.85v4.3Zm18.15,12.25c0,.47-.38.85-.85.85h-11.03c-.47,0-.85-.38-.85-.85v-4.3c0-.47.38-.85.85-.85h11.03c.47,0,.85.38.85.85v4.3Zm0-12.25c0,.47-.38.85-.85.85h-11.03c-.47,0-.85-.38-.85-.85v-4.3c0-.47.38-.85.85-.85h11.03c.47,0,.85.38.85.85v4.3Z"/>
    </g>
  </g>
</svg>