<?xml version="1.0" encoding="UTF-8"?>
<svg id="Capa_2" data-name="Capa 2" xmlns="http://www.w3.org/2000/svg" viewBox="0 0 16.37 14.07">
  <defs>
    <style>
      .cls-1 {
        fill: #23ccfb;
      }
    </style>
  </defs>
  <g id="_02" data-name="02">
    <g>
      <path class="cls-1" d="m16.36,5.83c0-.99,0-1.98,0-2.97,0-.23-.05-.44-.16-.64-.25-.46-.61-.85-1.1-1.2-.25-.19-.53-.34-.8-.46l-.08-.04c-.17-.08-.36-.16-.57-.22l-.12-.03c-.23-.06-.47-.13-.73-.16l-.27-.04c-.25-.03-.5-.07-.76-.08h0s0,0,0,0c-.36,0-.7.04-.98.07-.51.07-.99.18-1.45.33-.4.14-.77.34-1.14.61-.21-.15-.42-.28-.65-.39-.22-.11-.48-.24-.77-.32-.32-.09-.61-.17-.92-.21-.12-.01-.22-.03-.33-.04-.22-.03-.44-.06-.68-.06-.34,0-.67.03-.94.06-.31.04-.57.08-.83.14-.24.07-.47.13-.69.22-.3.12-.64.27-.96.48-.46.3-.82.64-1.1,1.05-.15.22-.33.53-.33.95,0,1.63,0,3.27,0,4.9v4.98c0,.23.06.44.17.63.23.41.64.65,1.1.65.42,0,.8-.2,1.04-.56.13-.21.28-.36.43-.46.31-.22.64-.35,1.06-.43.16-.03.33-.05.51-.06h.15c.09-.02.21-.02.32-.02.33,0,.61.03.86.08.47.09.79.22,1.05.42.2.15.33.28.42.43.24.39.62.61,1.05.61.05,0,.11,0,.17-.01.38-.03.73-.25.95-.63.09-.14.24-.29.42-.41.21-.14.43-.25.71-.33.29-.08.6-.13.93-.14.12,0,.23,0,.35,0,.16,0,.32,0,.48.02.41.04.78.13,1.11.28.36.17.6.37.77.65.19.34.6.56,1.05.56.13,0,.25-.02.37-.05.54-.16.9-.67.9-1.25-.01-1.32-.01-2.64-.01-3.95,0-.99,0-1.98,0-2.97Zm-.49,6.92c0,.35-.21.67-.54.77-.07.02-.15.03-.23.03-.25,0-.5-.11-.62-.32-.24-.39-.58-.65-.99-.84-.41-.19-.84-.29-1.29-.33-.17-.01-.34-.02-.51-.02-.12,0-.24,0-.36,0-.36.01-.71.06-1.06.16-.3.09-.58.21-.84.39-.23.15-.43.34-.58.57-.13.22-.33.37-.59.39-.03,0-.07,0-.1,0-.26,0-.48-.14-.62-.37-.14-.23-.33-.41-.55-.57-.37-.28-.8-.42-1.25-.51-.31-.07-.64-.09-.96-.09-.12,0-.24,0-.36,0-.24.02-.48.03-.71.08-.44.09-.85.24-1.22.5-.24.15-.43.36-.58.6-.16.23-.4.35-.63.35-.26,0-.52-.14-.67-.41-.07-.12-.1-.24-.1-.38v-4.98c0-1.63,0-3.27,0-4.9,0-.26.1-.46.24-.66.26-.37.59-.67.97-.92.27-.18.56-.31.86-.43.21-.08.42-.14.63-.2.25-.06.5-.1.76-.13.29-.03.59-.06.89-.06.32,0,.64.07.96.1.28.03.55.11.83.19.24.07.47.18.69.29.27.13.52.29.75.48.04.03.07.05.11.05.03,0,.07-.01.1-.04.37-.29.77-.53,1.21-.69.44-.15.89-.25,1.35-.31.31-.04.61-.07.92-.07.33.01.66.07.99.11.26.03.52.11.78.18.19.05.38.14.56.22.25.12.5.25.72.42.39.28.72.61.95,1.03.07.13.1.26.1.4,0,1.98-.01,3.96-.01,5.94,0,1.31,0,2.63.01,3.95Z"/>
      <path class="cls-1" d="m13.24,2.3c-.49-.18-1-.23-1.51-.24-.03,0-.05,0-.08,0-.06,0-.11,0-.17,0-.11,0-.22.01-.32.01-.33,0-.66.08-.98.18-.34.11-.65.27-.93.49-.19.16-.3.31-.3.58.02,2.53.01,5.06.01,7.59,0,.05-.02.11.03.13.01,0,.02,0,.04,0,0,0,0,0,.01,0,.03,0,.06-.01.09-.03.15-.09.32-.15.49-.2.28-.1.57-.18.87-.23.31-.05.63-.08.94-.1.11,0,.22,0,.33,0,.22,0,.45.02.67.05.2.02.41.06.61.1.17.04.34.09.51.13.2.06.4.15.59.24.06.02.11.06.18.07,0-.06,0-.12,0-.17V3.15c0-.08-.02-.14-.08-.2-.28-.31-.63-.51-1.01-.65Z"/>
      <path class="cls-1" d="m5.93,2.18c-.34-.09-.7-.11-1.05-.12-.07,0-.13,0-.2,0-.1,0-.2,0-.29.01-.08,0-.15,0-.23.01-.21.02-.43.05-.63.1-.47.12-.91.31-1.28.65-.14.12-.21.25-.21.44.01.69,0,1.38,0,2.07v5.62c0,.05,0,.08.02.1,0,0,0,0,.01,0,0,0,0,0,0,0,.02,0,.04-.01.08-.03.21-.1.42-.18.64-.25.22-.08.45-.14.69-.18.28-.05.57-.08.85-.11.17-.01.33,0,.5,0,.32,0,.63.03.94.08.22.03.42.08.63.13.28.07.54.17.79.29.07.03.12.05.15.06,0,0,.02,0,.02,0,0,0,0,0,0,0,.01,0,.02-.02.03-.03,0,0,0-.01.01-.02,0-.03,0-.08,0-.14V3.23c0-.13-.04-.23-.13-.32-.38-.39-.86-.6-1.37-.73Z"/>
    </g>
  </g>
</svg>