<?xml version="1.0" encoding="UTF-8"?>
<svg id="Capa_2" data-name="Capa 2" xmlns="http://www.w3.org/2000/svg" viewBox="0 0 15.36 15.36">
  <defs>
    <style>
      .cls-1 {
        fill: #23ccfb;
      }
    </style>
  </defs>
  <g id="_02" data-name="02">
    <path class="cls-1" d="m14.87,9.05l-1.33-.63c.03-.24.05-.49.05-.73,0-.04,0-.08,0-.12l1.38-.49c.31-.11.47-.44.36-.75l-.85-2.39c-.11-.31-.45-.47-.75-.36l-1.38.49c-.17-.23-.37-.44-.57-.64l.63-1.33c.14-.29.02-.65-.28-.79L9.83.22c-.29-.14-.65-.01-.78.28l-.63,1.33c-.24-.03-.49-.05-.74-.05-.04,0-.08,0-.12,0l-.49-1.38c-.11-.31-.45-.47-.75-.36l-2.39.85c-.31.11-.47.45-.36.75l.49,1.38c-.23.17-.44.37-.64.58l-1.33-.63c-.29-.14-.64-.02-.78.28L.22,5.53c-.14.29-.02.64.28.78l1.33.63c-.03.24-.05.49-.05.74,0,.04,0,.08,0,.12l-1.38.49c-.31.11-.47.45-.36.75l.85,2.39c.11.31.45.47.75.36l1.38-.49c.17.23.37.44.57.64l-.63,1.33c-.14.29-.02.64.28.78l2.29,1.09c.29.14.64.02.78-.28l.63-1.32c.24.03.49.05.73.05.04,0,.08,0,.12,0l.49,1.38c.11.31.45.47.75.36l2.39-.85c.31-.11.47-.44.36-.75l-.49-1.38c.23-.17.44-.37.64-.58l1.33.63c.29.14.64.01.78-.28l1.09-2.29c.14-.29.02-.64-.28-.78Zm-7.19,2.58c-2.18,0-3.95-1.77-3.95-3.95s1.77-3.95,3.95-3.95,3.95,1.77,3.95,3.95-1.77,3.95-3.95,3.95Z"/>
  </g>
</svg>