<?xml version="1.0" encoding="UTF-8"?>
<svg id="Capa_2" data-name="Capa 2" xmlns="http://www.w3.org/2000/svg" viewBox="0 0 11.23 11.23">
  <defs>
    <style>
      .cls-1 {
        fill: #0cf;
      }
    </style>
  </defs>
  <g id="_02" data-name="02">
    <path class="cls-1" d="m6.16,0C3.36,0,1.09,2.27,1.09,5.07c0,1.01.3,1.96.81,2.75l-1.59,1.59c-.42.42-.42,1.09,0,1.51.21.21.48.31.75.31s.54-.1.75-.31l1.59-1.59c.79.51,1.74.81,2.75.81,2.8,0,5.07-2.27,5.07-5.07S8.96,0,6.16,0Zm0,7.56c-.3,0-.58-.05-.84-.15-.7-.25-1.26-.81-1.51-1.51-.1-.26-.15-.55-.15-.84,0-1.38,1.12-2.5,2.49-2.5s2.5,1.12,2.5,2.5-1.12,2.49-2.5,2.49Z"/>
  </g>
</svg>