<?xml version="1.0" encoding="UTF-8"?>
<svg id="Capa_2" data-name="Capa 2" xmlns="http://www.w3.org/2000/svg" viewBox="0 0 15.36 14.26">
  <defs>
    <style>
      .cls-1 {
        fill: #23ccfb;
      }
    </style>
  </defs>
  <g id="_02" data-name="02">
    <g id="qwzEjT.tif">
      <path class="cls-1" d="m7.69.1c.47,0,4.18,0,5.69,0,.77,0,1.35.35,1.73,1,.17.29.24.62.24.96,0,1.86,0,3.71,0,5.57,0,.69.03,1.39,0,2.08-.03.75-.37,1.34-1.06,1.69-.3.15-.61.22-.94.22-.9,0-1.79,0-2.69,0-.04,0-.07,0-.11.02-.06.02-.1.07-.11.08-.06.07-1.02,1.02-2.39,2.39-.22.22-.58.22-.8,0-1.35-1.36-2.31-2.32-2.37-2.38-.01-.01-.05-.05-.11-.07-.04-.01-.08-.02-.12-.02-.9,0-1.8,0-2.7,0-.69,0-1.24-.29-1.63-.84C.12,10.47,0,10.12,0,9.74,0,7.15,0,4.56,0,1.97c0-.32.1-.61.24-.88.09-.16.19-.3.31-.42,0,0,.37-.37.97-.53,1.06-.27,4.59-.04,6.16-.03Zm-.08,4.79c.07,0,.19,0,.31,0,.59,0,1.17,0,1.76,0,.59,0,1.18,0,1.77,0,.1,0,.2,0,.29-.02.4-.1.7-.43.72-.89.01-.36-.12-.64-.42-.84-.19-.13-.41-.16-.63-.16-2.53,0-5.05,0-7.58,0-.1,0-.2,0-.29.04-.6.19-.85.86-.55,1.39.17.3.42.47.78.48.36.02.71,0,1.07,0,.91,0,1.81,0,2.77,0Zm-2.32,3.85h0c.19,0,.39,0,.58,0,.32,0,.64.03.96,0,.61-.07.95-.61.81-1.19-.12-.47-.45-.72-.95-.72-.95-.01-1.9,0-2.85,0-.22,0-.42.05-.59.19-.36.29-.47.73-.29,1.17.14.33.48.55.83.56.5,0,1.01,0,1.51,0Z"/>
    </g>
  </g>
</svg>