<?xml version="1.0" encoding="UTF-8"?>
<svg id="Capa_2" data-name="Capa 2" xmlns="http://www.w3.org/2000/svg" viewBox="0 0 17.89 21.02">
  <defs>
    <style>
      .cls-1 {
        fill: #fff;
      }

      .cls-2 {
        fill: #ff1d25;
      }

      .cls-3 {
        fill: #23ccfb;
      }
    </style>
  </defs>
  <g id="_01" data-name="01">
    <g>
      <path class="cls-3" d="m15.82,7.05v11.53c0,1.35-1.1,2.45-2.45,2.45H2.45c-1.35,0-2.45-1.1-2.45-2.45V2.45C0,1.1,1.1,0,2.45,0h6.31c.32,0,.63.13.86.36l5.84,5.82c.23.23.36.54.36.87Z"/>
      <path d="m9.12,13.28v6.39c0,.75.61,1.36,1.36,1.36h6.05c.75,0,1.36-.61,1.36-1.36v-8.93c0-.75-.61-1.36-1.36-1.36h-3.49c-.18,0-.35.07-.48.2l-3.24,3.23c-.13.13-.2.3-.2.48Z"/>
      <g>
        <path class="cls-1" d="m16.17,15.3h-5.33c-.13,0-.24-.11-.24-.24s.11-.24.24-.24h5.33c.13,0,.24.11.24.24s-.11.24-.24.24Z"/>
        <path class="cls-1" d="m16.17,16.9h-5.33c-.13,0-.24-.11-.24-.24s.11-.24.24-.24h5.33c.13,0,.24.11.24.24s-.11.24-.24.24Z"/>
        <path class="cls-1" d="m16.17,18.5h-5.33c-.13,0-.24-.11-.24-.24s.11-.24.24-.24h5.33c.13,0,.24.11.24.24s-.11.24-.24.24Z"/>
      </g>
      <g>
        <circle class="cls-1" cx="4.59" cy="16.42" r="3.32"/>
        <path class="cls-2" d="m6.41,17.45l-.96-.96s-.04-.1,0-.14l.96-.96s.04-.1,0-.14l-.65-.65s-.1-.04-.14,0l-.96.96s-.1.04-.14,0l-.96-.96s-.1-.04-.14,0l-.65.65s-.04.1,0,.14l.96.96s.04.1,0,.14l-.96.96s-.04.1,0,.14l.65.65s.1.04.14,0l.96-.96s.1-.04.14,0l.96.96s.1.04.14,0l.65-.65s.04-.1,0-.14Z"/>
      </g>
    </g>
  </g>
</svg>