<?xml version="1.0" encoding="UTF-8"?>
<svg id="Capa_2" data-name="Capa 2" xmlns="http://www.w3.org/2000/svg" viewBox="0 0 17.89 16.53">
  <defs>
    <style>
      .cls-1 {
        fill: #0cf;
      }
    </style>
  </defs>
  <g id="_01" data-name="01">
    <g>
      <path class="cls-1" d="m6.86,2.32c-1.98,0-3.59,1.6-3.59,3.58s1.61,3.58,3.59,3.58,3.58-1.6,3.58-3.58-1.61-3.58-3.58-3.58Z"/>
      <path class="cls-1" d="m2.54,11.44c-1.21-1.14-1.98-2.78-1.98-4.58C.56,3.4,3.39.57,6.86.57s6.29,2.83,6.29,6.3c0,.67-.1,1.3-.29,1.9.19.03.37.14.51.28.23-.68.35-1.43.35-2.19,0-3.78-3.07-6.86-6.85-6.86S0,3.08,0,6.86c0,1.94.8,3.69,2.1,4.94.14.14.27.26.42.37,1.19.97,2.7,1.55,4.35,1.55.74,0,1.45-.11,2.12-.34v-3.04c-.67-.2-1.38-.32-2.12-.32-1.62,0-3.11.52-4.33,1.4Z"/>
      <path d="m16.44,13.08c-.2,0-.37.17-.37.37v2.34h-5.77v-5.72h2.38c.16,0,.29-.1.35-.24.02-.05.03-.09.03-.15,0-.22-.17-.39-.39-.39h-2.19c-.51,0-.94.42-.94.94v5.35c0,.51.42.93.93.93h5.41c.5,0,.92-.42.92-.93v-2.14c0-.2-.17-.37-.37-.37Z"/>
      <path d="m17.61,8.48c-.35-.35-.96-.35-1.31,0l-4.04,4.01v1.3h1.34l4.02-4c.17-.17.27-.41.27-.66s-.09-.48-.27-.66Z"/>
    </g>
  </g>
</svg>