<?xml version="1.0" encoding="UTF-8"?>
<svg id="Capa_2" data-name="Capa 2" xmlns="http://www.w3.org/2000/svg" viewBox="0 0 69.49 83.73">
  <defs>
    <style>
      .cls-1 {
        fill: #fff;
      }

      .cls-2 {
        fill: #fdde96;
      }

      .cls-3 {
        fill: #23ccfb;
      }

      .cls-4 {
        fill: #3fa73c;
      }
    </style>
  </defs>
  <g id="_01" data-name="01">
    <g>
      <path class="cls-4" d="m63.37,0H21.67c-3.38,0-6.12,2.74-6.12,6.12v41.7c0,3.38,2.74,6.12,6.12,6.12h41.7c3.38,0,6.12-2.74,6.12-6.12V6.12c0-3.38-2.74-6.12-6.12-6.12Zm-4.92,21.06l-9.79,11.93c-.9,1.09-2.23,1.75-3.64,1.79-1.41.04-2.78-.53-3.74-1.57l-1.48-1.59-11.04,13.29c-.61.73-1.48,1.11-2.36,1.11-.69,0-1.38-.23-1.95-.71-1.3-1.08-1.48-3.01-.4-4.31l11.93-14.36c.9-1.08,2.23-1.73,3.64-1.77,1.4-.04,2.77.53,3.73,1.57l1.47,1.59,8.9-10.84c1.07-1.31,3-1.5,4.31-.42,1.31,1.07,1.5,3,.42,4.31Z"/>
      <path class="cls-1" d="m55.63,44.34c-.19-4.46-3.81-7.94-8.29-7.94H8.3C3.82,36.4.2,39.88.01,44.34c-.01.16-.01.28-.01.36v29.16c0,.08,0,.22.01.38.2,4.45,3.83,7.92,8.29,7.92h39.04c4.46,0,8.09-3.47,8.29-7.92.01-.16.01-.3.01-.38v-29.16c0-.08,0-.21-.01-.36Z"/>
      <path class="cls-3" d="m52.3,44.52c-.09-2.66-2.28-4.79-4.96-4.79H8.3c-2.68,0-4.87,2.13-4.96,4.79,0,.06,0,.12,0,.18v29.16c0,.07,0,.13,0,.19.1,2.65,2.28,4.77,4.96,4.77h39.04c2.67,0,4.86-2.12,4.96-4.77,0-.07,0-.13,0-.19v-29.16c0-.06,0-.12,0-.18Zm-7.63,27.14c0,1.32-1.07,2.4-2.4,2.4H12.81c-1.33,0-2.4-1.07-2.4-2.4v-4.73h34.26v4.73Zm0-9.78H10.41v-7.77h34.26v7.77Zm0-12.56H10.41v-2.4c0-1.32,1.07-2.4,2.4-2.4h29.45c1.33,0,2.4,1.07,2.4,2.4v2.4Z"/>
      <g>
        <path class="cls-1" d="m57.64,65.47l-4.57-7.92c-1.23-2.13-3.52-3.45-5.97-3.45h-9.14c-2.45,0-4.74,1.32-5.97,3.45l-4.57,7.92c-1.23,2.12-1.23,4.76,0,6.9l4.57,7.92c1.23,2.12,3.52,3.45,5.97,3.45h9.14c2.45,0,4.74-1.32,5.97-3.45l4.57-7.92c1.23-2.13,1.23-4.77,0-6.9Zm-3.59,4.83l-4.57,7.92c-.49.85-1.4,1.38-2.39,1.38h-9.14c-.99,0-1.9-.52-2.39-1.38l-4.57-7.92c-.49-.85-.49-1.9,0-2.76l4.57-7.92c.5-.85,1.41-1.38,2.39-1.38h9.14c.99,0,1.9.52,2.39,1.38l4.57,7.92c.49.85.49,1.9,0,2.76Z"/>
        <path class="cls-2" d="m54.05,70.3l-4.57,7.92c-.49.85-1.4,1.38-2.39,1.38h-9.14c-.99,0-1.9-.52-2.39-1.38l-4.57-7.92c-.49-.85-.49-1.9,0-2.76l4.57-7.92c.5-.85,1.41-1.38,2.39-1.38h9.14c.99,0,1.9.52,2.39,1.38l4.57,7.92c.49.85.49,1.9,0,2.76Z"/>
        <circle class="cls-1" cx="42.52" cy="68.92" r="3.13"/>
      </g>
    </g>
  </g>
</svg>