<?xml version="1.0" encoding="UTF-8"?>
<svg id="Capa_2" data-name="Capa 2" xmlns="http://www.w3.org/2000/svg" viewBox="0 0 57.68 48.7">
  <defs>
    <style>
      .cls-1 {
        fill: #fff;
      }

      .cls-2 {
        fill: #fdde96;
      }
    </style>
  </defs>
  <g id="_01" data-name="01">
    <g>
      <g>
        <path class="cls-2" d="m2.42,25.78C1.13,25.78.06,24.76.01,23.46c-.1-2.93.38-5.8,1.43-8.53,1.06-2.76,2.72-5.33,4.8-7.44.93-.95,2.46-.96,3.4-.02.95.93.96,2.46.02,3.4-1.62,1.64-2.91,3.64-3.73,5.79-.82,2.12-1.19,4.36-1.11,6.63.05,1.33-.99,2.44-2.32,2.49-.03,0-.06,0-.08,0Z"/>
        <path class="cls-2" d="m44.74,25.97c-1.27,0-2.34-1-2.4-2.29-.38-7.74-4.82-14.58-11.32-17.42-6.2-2.71-12.13-.97-14.39-.09-1.24.48-2.63-.14-3.11-1.38-.48-1.24.14-2.63,1.38-3.11,2.82-1.09,10.22-3.25,18.05.17,8.16,3.57,13.73,12.04,14.2,21.59.06,1.33-.96,2.46-2.29,2.52-.04,0-.08,0-.12,0Z"/>
        <path class="cls-2" d="m11.08,37.19c-.3,0-.6-.06-.89-.17-1.23-.49-1.83-1.89-1.34-3.13.77-1.92,1.34-3.88,1.72-5.83.34-1.78.46-3.24.56-4.53.2-2.49.37-4.64,1.96-7.1,1.08-1.66,2.44-2.98,4.04-3.91,4.32-2.52,11.38-2.61,15.95,2.2,3.83,4.04,3.53,9.22,3.35,10.72-.16,1.32-1.36,2.26-2.68,2.09-1.32-.16-2.26-1.36-2.09-2.68.08-.69.38-4.25-2.06-6.82-2.72-2.87-7.33-2.94-10.03-1.36-.95.55-1.76,1.35-2.42,2.37-.93,1.44-1.03,2.65-1.2,4.86-.11,1.34-.24,3.02-.63,5.06-.43,2.25-1.1,4.5-1.98,6.7-.38.94-1.28,1.51-2.23,1.51Z"/>
        <path class="cls-2" d="m19.52,42.6c-.37,0-.74-.08-1.09-.26-1.18-.6-1.65-2.05-1.05-3.24,1.37-2.7,2.39-5.56,3.02-8.51.69-3.24.92-6.56.68-9.87-.1-1.33.9-2.48,2.22-2.58,1.33-.1,2.48.9,2.58,2.22.28,3.77.02,7.55-.77,11.23-.72,3.36-1.88,6.62-3.44,9.69-.42.83-1.27,1.31-2.15,1.31Z"/>
        <path class="cls-2" d="m31.52,41.81c-.31,0-.62-.06-.92-.19-1.23-.51-1.81-1.92-1.3-3.15.6-1.43,1.09-2.92,1.47-4.42.27-1.08.5-2.19.66-3.3.19-1.32,1.41-2.22,2.73-2.04,1.32.19,2.23,1.41,2.04,2.73-.18,1.27-.44,2.55-.75,3.79-.44,1.73-1.01,3.43-1.69,5.08-.38.92-1.28,1.48-2.22,1.48Z"/>
      </g>
      <path class="cls-1" d="m55.65,31.8l-1.37-.65,1.42-.51c1.54-.54,2.35-2.23,1.82-3.78l-1.85-5.19c-.41-1.18-1.54-1.98-2.8-1.98-.35,0-.69.06-1.01.18l-1.41.5.64-1.36c.34-.72.39-1.53.12-2.28-.27-.75-.81-1.35-1.53-1.69l-4.96-2.36c-.4-.19-.84-.29-1.27-.29-1.15,0-2.2.67-2.69,1.7l-.65,1.36-.5-1.43c-.42-1.18-1.54-1.98-2.8-1.98-.33,0-.66.05-.98.16l-5.2,1.84c-1.54.56-2.35,2.26-1.81,3.8l.5,1.42-1.36-.65c-.41-.19-.84-.29-1.28-.29-1.15,0-2.2.66-2.68,1.69l-2.37,4.96c-.34.72-.38,1.53-.12,2.27.26.76.81,1.36,1.53,1.7l1.36.65-1.42.5c-1.54.54-2.35,2.24-1.82,3.79l1.85,5.19c.41,1.18,1.54,1.98,2.81,1.98.32,0,.65-.05.97-.16l1.44-.51-.65,1.36c-.34.7-.39,1.51-.13,2.25.26.75.81,1.36,1.53,1.71l4.96,2.36c.4.19.84.29,1.28.29,1.13,0,2.18-.66,2.68-1.68l.65-1.37.5,1.43c.43,1.18,1.55,1.98,2.8,1.98.33,0,.66-.05.98-.16l5.2-1.85c.74-.26,1.34-.8,1.69-1.51.34-.72.38-1.53.12-2.28l-.5-1.41,1.36.64c.42.2.84.29,1.27.29,1.14,0,2.2-.66,2.69-1.69l2.37-4.97c.7-1.48.07-3.26-1.4-3.96Z"/>
      <path d="m54.91,33.33l-2.87-1.37c.07-.52.1-1.05.1-1.59,0-.09,0-.18,0-.27l3-1.06c.66-.23,1.01-.96.78-1.63l-1.84-5.18c-.23-.67-.96-1.02-1.63-.78l-3,1.06c-.38-.49-.79-.95-1.24-1.38l1.36-2.87c.3-.64.04-1.4-.6-1.7l-4.96-2.36c-.64-.3-1.4-.03-1.7.6l-1.37,2.87c-.53-.07-1.06-.1-1.6-.1-.09,0-.18,0-.26,0l-1.06-3c-.23-.66-.96-1.01-1.63-.77l-5.18,1.83c-.66.24-1.01.97-.77,1.63l1.06,3c-.5.38-.95.8-1.38,1.25l-2.87-1.37c-.63-.3-1.39-.04-1.7.6l-2.36,4.97c-.3.63-.04,1.39.6,1.7l2.87,1.36c-.07.52-.1,1.06-.1,1.6,0,.09,0,.18,0,.26l-3,1.06c-.67.24-1.01.97-.78,1.63l1.84,5.18c.23.66.96,1.01,1.63.78l3-1.06c.38.49.79.95,1.24,1.38l-1.36,2.87c-.3.64-.04,1.39.6,1.7l4.96,2.36c.64.3,1.39.04,1.7-.6l1.37-2.86c.52.07,1.05.1,1.59.1.09,0,.18,0,.27,0l1.06,3c.24.66.96,1.01,1.63.77l5.18-1.84c.66-.23,1.01-.96.77-1.63l-1.06-2.99c.5-.38.95-.8,1.38-1.25l2.87,1.37c.63.3,1.39.03,1.7-.6l2.36-4.97c.3-.64.04-1.39-.6-1.7Zm-15.57,5.59c-4.72,0-8.55-3.83-8.55-8.55s3.83-8.55,8.55-8.55,8.55,3.82,8.55,8.55-3.83,8.55-8.55,8.55Z"/>
    </g>
  </g>
</svg>