<?xml version="1.0" encoding="UTF-8"?>
<svg id="Capa_2" data-name="Capa 2" xmlns="http://www.w3.org/2000/svg" viewBox="0 0 18.06 20.55">
  <defs>
    <style>
      .cls-1 {
        fill: #0cf;
      }
    </style>
  </defs>
  <g id="_03" data-name="03">
    <g>
      <g>
        <path class="cls-1" d="m7.79,0C3.49,0,0,3.49,0,7.79c0,2.2.91,4.18,2.37,5.6.17-.14.34-.28.51-.41-1.39-1.3-2.25-3.15-2.25-5.19C.64,3.84,3.85.64,7.79.64s7.15,3.2,7.15,7.15c0,.58-.07,1.15-.2,1.69h.66c.12-.54.18-1.11.18-1.69C15.57,3.49,12.09,0,7.79,0Z"/>
        <circle class="cls-1" cx="7.79" cy="6.69" r="4.07"/>
        <path class="cls-1" d="m9.6,11.58v3.79c-.58.13-1.19.21-1.81.21-1.87,0-3.59-.66-4.92-1.76-.17-.13-.33-.28-.49-.43.17-.14.34-.28.51-.41,1.37-1,3.06-1.6,4.9-1.6.62,0,1.23.07,1.81.2Z"/>
      </g>
      <g>
        <path d="m17.06,10.46h-1.03v.44c0,.31-.25.57-.57.57h-2.84c-.31,0-.57-.25-.57-.57v-.44h-1.13c-.55,0-1,.45-1,1v8.08c0,.55.45,1,1,1h6.14c.55,0,1-.45,1-1v-8.08c0-.55-.45-1-1-1Zm-5.06,8.11c-.37,0-.67-.3-.67-.67s.3-.67.67-.67.67.3.67.67-.3.67-.67.67Zm0-2.74c-.37,0-.67-.3-.67-.67s.3-.67.67-.67.67.3.67.67-.3.67-.67.67Zm4.66,2.51c0,.13-.1.23-.23.23h-2.84c-.13,0-.23-.1-.23-.23v-.88c0-.13.1-.23.23-.23h2.84c.13,0,.23.1.23.23v.88Zm0-2.74c0,.13-.1.23-.23.23h-2.84c-.13,0-.23-.1-.23-.23v-.88c0-.13.1-.23.23-.23h2.84c.13,0,.23.1.23.23v.88Z"/>
        <rect x="12.39" y="9.79" width="3.31" height="1.34" rx=".23" ry=".23"/>
      </g>
    </g>
  </g>
</svg>