<?xml version="1.0" encoding="UTF-8"?>
<svg id="Capa_2" data-name="Capa 2" xmlns="http://www.w3.org/2000/svg" viewBox="0 0 47.79 55.15">
  <defs>
    <style>
      .cls-1 {
        fill: #0cf;
      }

      .cls-2 {
        fill: #fff;
      }
    </style>
  </defs>
  <g id="_01" data-name="01">
    <g>
      <path d="m9.57,17.03v27.85c0,3.27,2.65,5.92,5.92,5.92h26.39c3.27,0,5.92-2.65,5.92-5.92V5.92C47.79,2.65,45.14,0,41.88,0h-15.24c-.78,0-1.53.31-2.09.86l-14.11,14.07c-.56.55-.87,1.31-.87,2.09Z"/>
      <g>
        <path class="cls-2" d="m40.31,25.85h-23.25c-.58,0-1.04-.47-1.04-1.04s.47-1.04,1.04-1.04h23.25c.58,0,1.04.47,1.04,1.04s-.47,1.04-1.04,1.04Z"/>
        <path class="cls-2" d="m40.31,32.81h-23.25c-.58,0-1.04-.47-1.04-1.04s.47-1.04,1.04-1.04h23.25c.58,0,1.04.47,1.04,1.04s-.47,1.04-1.04,1.04Z"/>
        <path class="cls-2" d="m40.31,39.77h-23.25c-.58,0-1.04-.47-1.04-1.04s.47-1.04,1.04-1.04h23.25c.58,0,1.04.47,1.04,1.04s-.47,1.04-1.04,1.04Z"/>
      </g>
      <path class="cls-2" d="m31.43,38.35c0,8.07-6.57,14.59-14.64,14.59-1.59,0-3.13-.26-4.58-.75l-1.01,1.01c-1.23,1.28-2.91,1.94-4.63,1.94s-3.44-.66-4.63-1.9c-1.23-1.23-1.94-2.91-1.94-4.67s.71-3.39,1.94-4.63l1.01-1.01c-.49-1.46-.75-3-.75-4.59,0-8.07,6.57-14.59,14.59-14.59s14.64,6.52,14.64,14.59Z"/>
      <path class="cls-1" d="m16.81,28.15c-5.63,0-10.2,4.56-10.2,10.2,0,2.04.6,3.94,1.63,5.53l-3.2,3.2c-.84.84-.84,2.19,0,3.03.42.42.97.63,1.51.63s1.1-.21,1.51-.63l3.2-3.2c1.59,1.03,3.49,1.63,5.53,1.63,5.63,0,10.2-4.57,10.2-10.2s-4.57-10.2-10.2-10.2Zm0,15.21c-.59,0-1.16-.1-1.69-.29-1.41-.5-2.53-1.62-3.03-3.03-.19-.53-.29-1.1-.29-1.69,0-2.77,2.25-5.02,5.02-5.02s5.02,2.25,5.02,5.02-2.25,5.02-5.02,5.02Z"/>
    </g>
  </g>
</svg>