<?xml version="1.0" encoding="UTF-8"?>
<svg id="Capa_2" data-name="Capa 2" xmlns="http://www.w3.org/2000/svg" viewBox="0 0 17.97 17.88">
  <defs>
    <style>
      .cls-1 {
        fill: #0cf;
      }
    </style>
  </defs>
  <g id="_03" data-name="03">
    <g>
      <g>
        <path class="cls-1" d="m7.79,0C3.49,0,0,3.49,0,7.79c0,2.2.91,4.18,2.37,5.6.17-.14.34-.28.51-.41-1.39-1.31-2.25-3.15-2.25-5.19C.64,3.85,3.85.64,7.79.64s7.15,3.21,7.15,7.15c0,.33-.03.66-.07.98h.36c.09,0,.19.01.28.04.04-.33.07-.68.07-1.02C15.57,3.49,12.09,0,7.79,0Z"/>
        <circle class="cls-1" cx="7.79" cy="6.7" r="4.07"/>
        <path class="cls-1" d="m11.08,12.07v2.78c-1,.47-2.12.73-3.3.73-1.87,0-3.59-.66-4.92-1.76-.17-.14-.33-.28-.49-.43.17-.14.34-.28.51-.41,1.37-1,3.06-1.6,4.9-1.6,1.17,0,2.29.24,3.3.68Z"/>
      </g>
      <path d="m17.79,11.4c-.49-.49-.98-.98-1.47-1.47l-.66-.66c-.12-.12-.27-.18-.43-.18h-3.22c-.34,0-.61.28-.61.61v7.56c0,.34.28.61.61.61h5.35c.34,0,.61-.28.61-.61v-5.43c0-.16-.06-.32-.18-.43Zm-4.29,4.76c0,.3-.24.54-.54.54s-.54-.24-.54-.54v-2.19c0-.3.24-.54.54-.54s.54.24.54.54v2.19Zm1.62,0c0,.3-.24.54-.54.54s-.54-.24-.54-.54v-2.7c0-.3.24-.54.54-.54s.54.24.54.54v2.7Zm1.66,0c0,.3-.24.54-.54.54s-.54-.24-.54-.54v-3.79c0-.3.24-.54.54-.54s.54.24.54.54v3.79Z"/>
    </g>
  </g>
</svg>