<?xml version="1.0" encoding="UTF-8"?>
<svg id="Capa_2" data-name="Capa 2" xmlns="http://www.w3.org/2000/svg" viewBox="0 0 63.08 47.46">
  <defs>
    <style>
      .cls-1 {
        fill: #fff;
      }

      .cls-2 {
        fill: #23ccfb;
      }
    </style>
  </defs>
  <g id="_01" data-name="01">
    <g>
      <g>
        <path class="cls-2" d="m12.71,37.16v-7.64c0-1.98.62-3.86,1.8-5.44.57-.76,1.24-1.42,2.01-1.96,1.56-1.11,3.39-1.7,5.3-1.7h33.19c.32,0,.58-.26.58-.58v-5.98c0-3.62-2.94-6.56-6.56-6.56h-17.28L24.3.16c-.11-.1-.25-.16-.4-.16h-15.51C3.97,0,.3,3.44.02,7.84c-.01.18-.02.36-.02.54v28.78c0,.33.03.65.08.97.47,3.07,3.17,5.38,6.28,5.38,3.5,0,6.36-2.85,6.36-6.36Z"/>
        <path d="m55.01,23.15h-31.16c-4.54,0-8.24,3.7-8.24,8.24v7.69c0,1.25-.33,2.49-.94,3.57-.67,1.17-1.64,2.12-2.81,2.76-1.07.59-2.24.89-3.48.89-.32,0-.58.26-.58.58s.26.58.58.58h46.62c2.96-.02,5.68-1.65,7.1-4.25.64-1.19.98-2.53.98-3.88v-8.06c0-4.45-3.62-8.1-8.08-8.13Z"/>
      </g>
      <g id="nczh8P.tif">
        <path class="cls-1" d="m58.63,35.11c-.03,4.46-3.38,7.87-7.64,7.89-4.35.02-7.47-3.37-7.71-7.19-.14-2.22.56-4.18,2.09-5.79,1.46-1.54,3.27-2.35,5.4-2.39,2.08-.05,3.89.65,5.4,2.06,1.62,1.51,2.38,3.4,2.45,5.42Zm-7.72-.77h0c.55,0,1.1,0,1.66,0,.2,0,.25-.04.25-.25,0-.15-.05-.3-.06-.45-.05-.54-.15-1.06-.28-1.58-.11-.42-.24-.83-.42-1.22-.19-.42-.4-.82-.75-1.13-.27-.23-.46-.23-.73,0-.26.22-.43.51-.59.8-.33.61-.53,1.27-.67,1.94-.05.26-.11.52-.15.78-.04.28-.08.57-.1.86-.02.23.01.25.23.25.54,0,1.07,0,1.61,0Zm.02,1.93s0,0,0,0c-.53,0-1.06,0-1.59,0-.25,0-.3.05-.27.3.08.61.16,1.23.31,1.83.15.59.33,1.17.62,1.71.17.32.36.62.64.84.18.13.29.2.5.08.28-.16.46-.4.62-.66.38-.62.61-1.3.78-2,.08-.32.15-.65.18-.98.03-.27.09-.55.1-.82.01-.26-.02-.29-.28-.29-.54,0-1.07,0-1.61,0Zm4.74-1.93h0c.25,0,.5,0,.76,0,.12,0,.18-.04.16-.18-.04-.32-.14-.62-.24-.91-.07-.2-.17-.4-.27-.59-.23-.44-.5-.86-.84-1.22-.32-.34-.64-.67-1.05-.91-.03-.02-.07-.06-.11-.03-.05.03-.04.08-.02.13.07.15.1.31.15.47.13.41.24.82.32,1.24.11.6.19,1.22.23,1.83,0,.13.06.18.2.18.24,0,.48,0,.73,0Zm-9.47,0c.25,0,.5,0,.76,0,.11,0,.16-.04.19-.16.04-.17.03-.33.04-.5.03-.35.1-.69.15-1.04.05-.3.11-.6.18-.9.08-.36.2-.71.31-1.06.01-.04.05-.1,0-.14-.06-.05-.11,0-.16.02-.48.31-.87.71-1.23,1.15-.39.48-.68,1.02-.9,1.59-.1.26-.18.53-.23.81-.04.2,0,.23.2.23.23,0,.46,0,.69,0Zm9.46,1.93c-.25,0-.49,0-.74,0-.09,0-.15.03-.17.12-.01.09-.03.19-.03.28,0,.48-.08.95-.17,1.41-.11.62-.26,1.24-.49,1.84-.02.05-.08.12,0,.17.06.04.11,0,.16-.04.48-.31.88-.7,1.23-1.15.31-.39.56-.81.77-1.26.16-.36.29-.73.36-1.12.04-.21,0-.25-.22-.25-.23,0-.46,0-.69,0Zm-9.44,0h0c-.24,0-.48,0-.73,0-.16,0-.21.06-.18.22.07.39.19.77.35,1.13.23.52.52,1.01.9,1.44.33.38.69.72,1.11,1,.05.03.1.09.15.05.05-.04.02-.1,0-.16-.08-.24-.16-.48-.23-.73-.08-.29-.14-.58-.21-.87-.08-.35-.12-.7-.17-1.05-.04-.28-.07-.56-.09-.84-.01-.15-.1-.19-.23-.19-.23,0-.46,0-.69,0Z"/>
      </g>
    </g>
  </g>
</svg>