<?xml version="1.0" encoding="UTF-8"?>
<svg id="Capa_2" data-name="Capa 2" xmlns="http://www.w3.org/2000/svg" viewBox="0 0 267.65 231.42">
  <defs>
    <style>
      .cls-1 {
        fill: #0cf;
      }

      .cls-2 {
        fill: #fff;
      }

      .cls-3 {
        fill: #23ccfb;
      }
    </style>
  </defs>
  <g id="_05" data-name="05">
    <g>
      <g>
        <path d="m40.14,71.45v116.85c0,13.71,11.11,24.82,24.82,24.82h110.76c13.71,0,24.82-11.11,24.82-24.82V24.82C200.55,11.11,189.44,0,175.73,0h-63.95c-3.28,0-6.44,1.3-8.76,3.62l-59.23,59.04c-2.34,2.33-3.65,5.49-3.65,8.79Z"/>
        <g>
          <path class="cls-2" d="m169.14,108.46h-97.58c-2.42,0-4.38-1.96-4.38-4.38s1.96-4.38,4.38-4.38h97.58c2.42,0,4.38,1.96,4.38,4.38s-1.96,4.38-4.38,4.38Z"/>
          <path class="cls-2" d="m169.14,137.68h-97.58c-2.42,0-4.38-1.96-4.38-4.38s1.96-4.38,4.38-4.38h97.58c2.42,0,4.38,1.96,4.38,4.38s-1.96,4.38-4.38,4.38Z"/>
          <path class="cls-2" d="m169.14,166.9h-97.58c-2.42,0-4.38-1.96-4.38-4.38s1.96-4.38,4.38-4.38h97.58c2.42,0,4.38,1.96,4.38,4.38s-1.96,4.38-4.38,4.38Z"/>
        </g>
        <path class="cls-2" d="m131.9,160.93c0,33.85-27.56,61.23-61.42,61.23-6.66,0-13.13-1.11-19.24-3.15l-4.25,4.26c-5.18,5.36-12.21,8.14-19.42,8.14s-14.43-2.78-19.43-7.96c-5.18-5.18-8.14-12.21-8.14-19.61s2.96-14.25,8.14-19.43l4.26-4.25c-2.04-6.11-3.15-12.58-3.15-19.24,0-33.86,27.57-61.23,61.23-61.23s61.42,27.38,61.42,61.23Z"/>
        <path class="cls-1" d="m70.52,118.12c-23.63,0-42.79,19.15-42.79,42.79,0,8.57,2.52,16.54,6.85,23.23l-13.45,13.45c-3.51,3.51-3.51,9.2,0,12.71,1.75,1.76,4.05,2.63,6.36,2.63s4.6-.88,6.36-2.63l13.45-13.45c6.69,4.34,14.66,6.85,23.23,6.85,23.63,0,42.79-19.16,42.79-42.79s-19.16-42.79-42.79-42.79Zm0,63.85c-2.49,0-4.89-.43-7.11-1.24-5.91-2.11-10.6-6.8-12.71-12.71-.8-2.22-1.24-4.61-1.24-7.11,0-11.63,9.43-21.06,21.06-21.06s21.06,9.43,21.06,21.06-9.43,21.06-21.06,21.06Z"/>
      </g>
      <g>
        <path class="cls-2" d="m267.65,156.89v-17.33c0-8.83-7.19-16.02-16.02-16.02h-3.98v-5.85c0-4.68-3.81-8.48-8.48-8.48h-6.99c-4.68,0-8.49,3.81-8.49,8.48v5.85h-28.68v-5.85c0-4.68-3.81-8.48-8.48-8.48h-6.99c-4.68,0-8.48,3.81-8.48,8.48v5.85h-3.34c-8.83,0-16.02,7.19-16.02,16.02v17.33c0,2.29,1.14,4.31,2.88,5.54-1.74,1.23-2.88,3.25-2.88,5.54v40.6c0,8.83,7.19,16.02,16.02,16.02h83.91c8.83,0,16.02-7.19,16.02-16.02v-40.6c0-2.29-1.14-4.31-2.88-5.54,1.74-1.23,2.88-3.25,2.88-5.54Z"/>
        <g>
          <path d="m260.85,139.56v17.33h-102.34v-17.33c0-5.09,4.13-9.22,9.22-9.22h10.15v-12.65c0-.92.76-1.68,1.68-1.68h6.99c.93,0,1.68.76,1.68,1.68v12.65h42.29v-12.65c0-.92.76-1.68,1.69-1.68h6.99c.93,0,1.68.76,1.68,1.68v12.65h10.78c5.09,0,9.22,4.13,9.22,9.22Z"/>
          <path class="cls-3" d="m158.5,167.98v40.6c0,5.1,4.13,9.22,9.22,9.22h83.91c5.09,0,9.22-4.12,9.22-9.22v-40.6h-102.34Zm46.49,38.31c0,.81-.65,1.47-1.47,1.47h-19.02c-.81,0-1.47-.65-1.47-1.47v-7.41c0-.81.65-1.47,1.47-1.47h19.02c.81,0,1.47.66,1.47,1.47v7.41Zm0-21.12c0,.81-.65,1.47-1.47,1.47h-19.02c-.81,0-1.47-.66-1.47-1.47v-7.41c0-.81.65-1.47,1.47-1.47h19.02c.81,0,1.47.65,1.47,1.47v7.41Zm31.31,21.12c0,.81-.65,1.47-1.47,1.47h-19.02c-.81,0-1.47-.65-1.47-1.47v-7.41c0-.81.65-1.47,1.47-1.47h19.02c.81,0,1.47.66,1.47,1.47v7.41Zm0-21.12c0,.81-.65,1.47-1.47,1.47h-19.02c-.81,0-1.47-.66-1.47-1.47v-7.41c0-.81.65-1.47,1.47-1.47h19.02c.81,0,1.47.65,1.47,1.47v7.41Z"/>
        </g>
      </g>
    </g>
  </g>
</svg>