<?xml version="1.0" encoding="UTF-8"?>
<svg id="Capa_2" data-name="Capa 2" xmlns="http://www.w3.org/2000/svg" viewBox="0 0 16.54 14.08">
  <defs>
    <style>
      .cls-1 {
        fill: #fff;
      }

      .cls-2 {
        fill: #23ccfb;
      }
    </style>
  </defs>
  <g id="_01" data-name="01">
    <g>
      <g>
        <path class="cls-2" d="m16.17,7.48V.83c-.02-.13-.05-.23-.1-.33-.17-.33-.5-.46-.61-.49-.02,0-.04-.01-.04-.01h-7.99s-.16.09-.16.09L1.11,3.21l-.09,4.26H.42c-.11,0-.22.04-.29.12-.08.07-.12.18-.12.29,0,.23.19.42.42.42h2.34v.02s.07.09.08.14c.02.04.02.08.02.13,0,.11-.04.2-.11.28v.02h-1.72c-.11,0-.22.05-.29.12-.07.08-.12.18-.12.3,0,.23.2.41.43.41h3.35c.12.07.19.2.19.35,0,.11-.05.22-.12.29-.01.01-.03.02-.04.03h-.68c-.1,0-.19.03-.26.09-.01,0-.03.02-.04.03-.07.07-.12.18-.12.29,0,.23.19.42.42.42h2.12c.07.07.12.18.12.29s-.05.22-.12.3h-2.69c-.11,0-.22.05-.29.12-.08.08-.13.2-.12.33.02.22.21.38.43.38h4.3c.06.07.1.17.1.28,0,.11-.05.22-.12.29,0,0-.02.02-.03.02h-1.82c-.12,0-.22.04-.3.12-.07.07-.12.18-.12.29,0,.1.04.2.1.27.08.09.19.15.32.15h5.36c.12,0,.22-.05.29-.12,0,0,.02-.02.02-.02.06-.07.1-.17.1-.27,0-.23-.19-.42-.42-.42h-2.18c-.07-.07-.11-.17-.11-.29s.05-.22.12-.29c0,0,.01,0,.01-.01h4.42c.11,0,.22-.04.29-.12,0,0,0,0,0,0,.07-.07.12-.18.12-.29s-.05-.22-.12-.3c-.07-.07-.18-.12-.29-.12h-2.25c-.08-.08-.13-.19-.13-.31,0-.11.04-.21.11-.28h3.6c.11,0,.22-.05.29-.12.08-.08.12-.18.12-.3,0-.23-.2-.41-.43-.41h-2.1c-.1-.08-.16-.2-.16-.33,0-.12.05-.22.12-.29.02-.02.04-.04.07-.06h1.58c.11,0,.22-.04.29-.12.08-.07.12-.18.12-.29s-.05-.22-.13-.3c-.07-.07-.17-.11-.29-.11h-.96c-.06-.07-.09-.16-.09-.26,0-.04,0-.09.02-.13.02-.06.05-.12.1-.16.01-.01.03-.02.04-.03h2.94c.11,0,.22-.05.29-.12.07-.08.12-.18.12-.3,0-.21-.17-.38-.37-.41ZM1.64,3.54L7.27.69v6.79H1.56l.08-3.93Z"/>
        <path class="cls-2" d="m2.76,10.49c-.08-.09-.19-.15-.32-.15h-.74c-.12,0-.22.05-.29.12-.08.08-.13.2-.12.32.02.22.21.39.43.39h.73c.11,0,.22-.05.29-.12,0,0,.02-.02.03-.03.06-.07.09-.16.09-.26s-.04-.19-.09-.26Z"/>
        <path class="cls-2" d="m15.65,8.92h-.22c-.23,0-.42.19-.42.42s.19.42.42.42h.22c.23,0,.42-.19.42-.42s-.19-.42-.42-.42Z"/>
        <path class="cls-2" d="m2.22,7.17c.16-1.17.16-2.35,0-3.52-.16,1.17-.16,2.35,0,3.52Z"/>
        <path class="cls-2" d="m3.07,7.23c.16-1.3.16-2.6,0-3.9-.16,1.3-.16,2.6,0,3.9Z"/>
        <path class="cls-2" d="m3.98,7.23c.16-1.41.16-2.83,0-4.24-.16,1.41-.16,2.83,0,4.24Z"/>
        <path class="cls-2" d="m4.84,7.25c.16-1.54.16-3.09,0-4.63-.16,1.54-.16,3.09,0,4.63Z"/>
        <path class="cls-2" d="m5.75,7.23c.16-1.65.16-3.31,0-4.96-.16,1.65-.16,3.31,0,4.96Z"/>
        <path class="cls-2" d="m6.64,1.98c-.16,1.75-.16,3.5,0,5.26.16-1.75.16-3.5,0-5.26Z"/>
      </g>
      <g>
        <path class="cls-1" d="m15.37,6.57c-.45-.08-.93.04-1.37.01.32-.14.82,0,1.11-.12-.26-.05-.78.07-.92-.03.22-.03.54,0,.72-.07-.21-.03-.48.03-.67-.01.14-.04.34-.02.49-.04-.03-.05-.22-.01-.3-.01-.04,0-.16.03-.15-.03.09-.25-.05-.51-.12-.74-.06-.16.24-.32.32-.16.04.13-.03.38.09.45-.07-.22.18-.5.09-.69-1.21-.25-.12,1.47-1.35,1.45-.55,0,.41-.02.38-.19-.15.01-.43.09-.53.02.7-.04,1-.31.04-.13.23-.07.56-.02.68-.26-.46.03-1.27.44-1.55-.12-.02-.06-.1.05-.12.06.5.2,1.01,1.17,1.52.98-.64-.47,1.31-.23,1.65-.38"/>
        <path class="cls-1" d="m8.05,5.32c.14-.29.48-.47.79-.57-.04.13.11.15.12.26-.03.25-.28.43-.29.69-.08.66.28,1,.87.92-.22-.07-.55-.07-.68-.27.19.05.39.13.59.11-.19-.08-.6-.07-.65-.28.15.05.54.19.59.12-.18-.08-.66-.07-.64-.31.17.08.36.11.55.14.13.09.85.61.76.65-.47-.04-.96-.01-1.4-.18-.51-.19-.35-.77-.11-1.13.06-.09.11-.33-.06-.19-.08.06-.23-.04-.27.07,0,.03,0,.1-.04.06-.04-.04-.18,0-.14-.08"/>
        <path class="cls-1" d="m13.61.54s-.01.02-.02.03c-.09.11-.17.23-.24.36-.12.21-.22.42-.3.65-.07.21-.13.42-.17.63-.02.1-.04.2-.05.3-.01.08-.02.15-.03.23-.01.09-.02.19-.02.28-.02.21-.02.41-.01.61,0,.08,0,.15.01.23,0,.05,0,.1.01.15,0,.06.01.11.02.17,0,.05.01.11.02.16,0,.06.02.11.02.17.01.08.03.16.04.24.05.26.12.52.23.76.05.12.11.24.17.35.04.07.08.13.13.19,0,0,0,0,0,.01,0,0,0,.01,0,.02,0,0-.01,0-.02,0,0,0,0,0,0,0,0,0,0,0-.01-.01-.08-.09-.17-.16-.27-.23-.11-.07-.22-.13-.33-.19-.19-.1-.39-.18-.6-.25-.25-.09-.51-.16-.77-.22-.1-.02-.2-.04-.3-.06-.07-.01-.14-.02-.21-.03-.07,0-.15-.02-.22-.02-.13,0-.25-.02-.38,0-.11,0-.21.01-.32.03-.11.02-.21.05-.31.09-.08.04-.16.09-.22.15-.04.04-.07.08-.1.13,0,0,0,.02-.02.02,0,0,0,0,0-.01,0-.07,0-.14.03-.21.02-.07.05-.14.08-.2.06-.14.14-.26.22-.39.12-.19.25-.38.39-.56.24-.33.5-.65.77-.96.05-.06.1-.12.15-.17.18-.2.36-.4.54-.59.14-.14.27-.29.42-.43.22-.22.45-.44.69-.64.22-.19.46-.38.69-.56.08-.06.15-.12.23-.17.01-.01.03-.02.05-.03m-.33,5.36s0-.02,0-.02c-.07-.11-.12-.22-.17-.34-.1-.24-.17-.49-.22-.75-.02-.09-.04-.19-.05-.28,0-.05-.02-.11-.02-.16,0-.06-.01-.11-.02-.17,0-.05-.01-.11-.02-.16,0-.05,0-.1-.01-.15,0-.08,0-.16-.01-.25,0-.19,0-.38,0-.57,0,0,0-.01,0-.02,0-.06,0-.11.02-.17,0-.07.01-.13.02-.2.01-.08.02-.17.04-.25.02-.13.05-.26.08-.4.06-.23.13-.46.22-.68.09-.21.2-.42.33-.61,0,0,0,0,0-.01,0,0,0,0,0-.01,0,0-.01,0-.01,0-.02.01-.03.02-.04.04-.05.07-.11.13-.16.2-.23.28-.45.56-.68.83-.23.28-.46.57-.69.85-.2.25-.41.5-.61.76-.2.26-.4.52-.59.78-.16.22-.31.44-.45.67-.04.06-.07.11-.11.17,0,0,0,.02-.01.02,0,0,0,.02.01.02,0,0,0,0,.01,0,0,0,.01,0,.02,0,.05,0,.09,0,.14-.01.09,0,.17,0,.26,0,.06,0,.12,0,.19.01.06,0,.11,0,.17.02.08,0,.16.02.25.03.11.02.21.04.32.06.26.06.51.13.76.22.21.07.41.16.6.26.15.08.3.16.43.26,0,0,.01.01.02.01"/>
        <path class="cls-1" d="m9.43,6.13s0,0-.01,0c-.04-.03-.08-.07-.13-.1-.01,0-.02-.02-.04-.02-.01,0-.02,0-.04,0,0,0,0,0-.01,0,0,0-.01,0,0-.02t0,0s.05-.04.07-.06c0,0,.01,0,.02-.01,0,0,.02,0,.02.01,0,0,0,.01,0,.02,0,.02,0,.04.03.06,0,0,.02.02.03.02.04.04.09.07.13.11.03.03.07.04.11.04.05,0,.1,0,.15.01.05,0,.1,0,.15.01,0,0,.02,0,.02,0,.05,0,.09,0,.14,0,.02,0,.04,0,.06,0,.02,0,.03,0,.04,0,.02,0,.05.02.07.03.07.06.13.11.2.17.15.12.3.24.45.36,0,0,.01,0,.02.02,0,0,0,0,0,0,0,0-.01,0-.02,0h-.34s0,0,0,.01c0,0,0,0,0,0,.06.05.11.1.17.15,0,0,0,0,0,0,0,0,0,.01,0,.02h-.02s-.04,0-.06,0c-.07,0-.14,0-.22-.01-.04,0-.08,0-.12,0-.03,0-.03,0-.04-.03-.01-.04-.02-.07-.04-.11,0,0,0,0,0-.01,0-.02-.01-.02-.03-.03-.01,0-.02-.01-.03-.02-.09-.09-.19-.17-.3-.25-.14-.11-.28-.22-.42-.33,0,0,0,0-.02-.01,0,0-.01-.01-.01-.02,0,0,0,0,0,0"/>
        <path class="cls-1" d="m11.29,6.79s.01.01.02.02c.05.04.1.09.15.13,0,0,.01.01.02.02,0,0,0,.01,0,.01h-.11s-.07-.01-.1-.01c-.04,0-.08,0-.12,0-.03,0-.06,0-.09,0-.02,0-.03,0-.04-.03,0-.03-.02-.07-.03-.1,0,0,0-.01,0-.02,0-.01-.01-.02-.02-.03,0,0-.01,0-.02-.01-.05-.05-.09-.09-.14-.13-.17-.14-.33-.27-.5-.4,0,0,0,0,0,0-.02,0-.02-.02-.02-.04,0,0,0,0,0,0-.07-.05-.14-.11-.21-.16-.02-.02-.05-.03-.08-.03,0,0-.01,0-.02,0,0,0-.01-.01,0-.02,0,0,0,0,0,0,.02-.01.03-.03.05-.04,0,0,.02-.01.02-.02.02-.01.03,0,.04.02,0,0,0,.01,0,.02,0,.02,0,.04.02.05,0,0,.01,0,.02.01.08.06.15.12.22.18.03.02.06.03.09.03h.03c.12,0,.23,0,.35,0,.06,0,.11,0,.17,0,.02,0,.03,0,.05.02.02.02.04.03.06.05.18.15.36.29.54.44.01.01.03.02.04.03,0,0,0,0,0,0,0,0,0,0,0,.01,0,0,0,0-.01,0,0,0-.01,0-.02,0h-.32s-.01,0-.02,0c0,0,0,0,0,0"/>
        <path class="cls-1" d="m12.98,6.97s-.02,0-.03,0c-.02,0-.03,0-.05,0-.08,0-.15-.01-.23-.02-.04,0-.08,0-.12,0-.02,0-.03,0-.03-.03,0-.02-.01-.04-.02-.06,0-.03-.02-.05-.04-.08-.01-.01-.02-.02-.04-.04-.11-.1-.22-.2-.34-.29-.09-.07-.17-.14-.26-.21,0,0,0,0,0,0-.02,0-.02-.02-.02-.04,0,0-.01,0-.02-.01-.08-.06-.15-.12-.23-.18-.02-.01-.04-.02-.06-.03-.01,0-.03,0-.04-.01,0,0,0,0,0-.01,0,0,.01-.02.02-.02.02-.02.04-.03.06-.05,0,0,0,0,.01,0,0,0,.02,0,.02,0,0,0,.01.02.01.03,0,.03.01.05.03.07.08.07.17.13.25.2,0,0,.01.01.02.02.02.01.03.01.05.01.01,0,.03,0,.04,0h.12s.1,0,.15,0c.03,0,.07,0,.1,0,.02,0,.03,0,.05,0,.03,0,.05,0,.08.02.16.13.31.26.47.39.06.05.12.1.18.15,0,0,.01,0,.02.01,0,0,0,.01,0,.01,0,0,0,0-.01,0-.03,0-.06,0-.09,0,0,0-.01,0-.02,0-.06,0-.12,0-.18,0,0,0,0,0-.01,0,0,0,0,0,0,.01.02.02.05.04.07.07.02.02.04.04.06.06,0,0,0,0,.01.01,0,0,0,0,0,.01"/>
        <path class="cls-1" d="m11.06,6.2s0,0,0,0c-.07-.06-.14-.11-.21-.17,0,0-.02-.02-.03-.02-.01,0-.03-.02-.04-.03-.02,0-.03-.02-.06-.02h0s-.01,0-.01,0c0,0,0,0,0-.01.02-.02.05-.04.08-.07,0,0,.01,0,.02-.01,0,0,.02,0,.02,0,0,0,0,.02,0,.02,0,.02.01.04.02.06,0,0,.02.02.03.03.09.07.17.14.26.21.02.02.04.02.07.02h.47s.06,0,.08.03c.04.03.08.07.12.1.17.14.35.28.52.43,0,0,.01,0,.02.02,0,0,0,.02,0,.02h0s-.06,0-.09,0c-.02,0-.03,0-.05,0-.05,0-.11,0-.16,0h-.02s0,0,0,0c.02.01.03.03.04.04.03.03.06.06.09.08,0,0,.01,0,.01.02,0,0,0,0-.01,0-.02,0-.04,0-.06,0-.04,0-.31,0-.34,0-.04,0,.15,0,.12,0-.01,0-.03,0-.04,0-.03,0-.05,0-.08,0-.02,0-.04-.01-.04-.03,0-.02-.01-.03-.02-.05,0-.03-.02-.06-.04-.08-.01-.01-.02-.02-.04-.04-.1-.09-.2-.17-.3-.26-.1-.08-.2-.16-.29-.23t0,0s-.01-.01,0-.02c0,0,0,0,0,0"/>
        <path class="cls-1" d="m9.99,5.14s0,.01,0,.02c-.05.06-.09.12-.13.19-.06.1-.1.21-.14.32,0,.03-.02.06-.03.09,0,.02-.01.04-.05.03-.03,0-.06-.01-.09-.02-.09-.04-.14-.11-.15-.21,0-.05,0-.06.03-.1.03-.05.07-.09.12-.13.11-.09.23-.14.36-.17.02,0,.04,0,.07,0,0,0,0,0,.01,0"/>
      </g>
    </g>
  </g>
</svg>