<?xml version="1.0" encoding="UTF-8"?>
<svg id="Capa_2" data-name="Capa 2" xmlns="http://www.w3.org/2000/svg" viewBox="0 0 15.85 16.53">
  <defs>
    <style>
      .cls-1 {
        fill: #23ccfb;
      }
    </style>
  </defs>
  <g id="_01" data-name="01">
    <g>
      <path class="cls-1" d="m6.9,3.35s-.02.01-.03.02c.04-.02.09-.04.13-.06,0,0,.02,0,.02,0,.09.06.18.11.27.18.12.1.26.09.4.11.14.03.29.05.43.07.03,0,.03.02.02.04-.04.1-.07.21-.1.32,0,.02-.02.03-.04.04,0,0-.02,0-.03.01-.11.04-.24.05-.32.12-.08.07-.13.18-.18.29-.12.26-.31.44-.57.56-.04.02-.09.05-.12.08-.14.11-.31.12-.47.14-.18.03-.36.05-.54.08-.03,0-.05.02-.05.06,0,.1,0,.2,0,.3,0,.03,0,.05.03.07,0,0,0,0,0,0,.08.08.18.14.22.23.04.1,0,.22,0,.33v.17c-.24-.16-.47-.32-.71-.47-.04-.03-.06-.06-.08-.11-.07-.2-.12-.4-.2-.59.03-.09.07-.17.11-.25-.15.22-.28.45-.41.69-.53,1.03-.79,2.21-.79,3.53s.26,2.49.79,3.52c.53,1.03,1.27,1.83,2.21,2.4.94.57,2,.86,3.19.86-.08-.03-.16-.05-.24-.08-.05-.02-.07-.04-.09-.09-.09-.24-.19-.47-.28-.71-.02-.05-.03-.1-.03-.16,0-.51,0-1.01,0-1.52,0-.08-.02-.12-.11-.13-.23-.04-.47-.1-.7-.14-.04,0-.07-.03-.08-.06-.09-.19-.19-.38-.29-.57-.02-.03-.02-.07-.02-.1-.15-.12-.29-.26-.43-.42-.58-.69-.86-1.63-.86-2.79s.29-2.1.86-2.79c.58-.7,1.33-1.05,2.26-1.05.53,0,1,.12,1.43.37.1-.1.2-.21.3-.32.03-.03.05-.04.09-.03.11.02.23.04.34.06.04,0,.07,0,.11-.02.18-.13.35-.26.53-.39.04-.03.06-.07.08-.11.11-.24.22-.47.34-.7.31.09.61.21.89.37.44.25.81.58,1.12.99.23.31.41.64.53,1-.38-1.21-1.03-2.18-1.96-2.92-1.05-.84-2.3-1.25-3.77-1.25-1.2,0-2.27.29-3.22.86Z"/>
      <path class="cls-1" d="m6.56,16.53s-7.48-6.82.06-14.36c0,0-5.58,4.58-6.31-.87,0,0-2.42,10.53,6.24,15.23Z"/>
      <path d="m2.85,2.42c.66.11,1.29-.34,1.4-1.01.11-.66-.34-1.29-1.01-1.4-.66-.11-1.29.34-1.4,1.01-.11.66.34,1.29,1.01,1.4Z"/>
      <path class="cls-1" d="m15.23,11.88s-.08,0-.11,0c-.13.03-.26.06-.38.1-.04.01-.08.01-.12,0-.09-.03-.18-.06-.27-.09-.04-.01-.05-.03-.01-.09.08-.12.14-.25.19-.38h-1.84c-.25.56-.6.98-1.05,1.27-.02.01-.04.03-.06.04.06,0,.12,0,.18,0,.06,0,.09.01.07.08-.05.24-.1.47-.14.71,0,.05-.03.08-.07.12-.19.19-.38.38-.58.57-.04.04-.05.08-.05.13,0,.12,0,.24,0,.36,0,.06-.02.1-.07.13-.19.14-.37.28-.56.42-.05.03-.07.07-.07.14,0,.23,0,.45,0,.68v.02c1.4-.03,2.6-.44,3.6-1.24.89-.71,1.53-1.64,1.92-2.78-.2-.04-.39-.09-.58-.16Z"/>
      <path class="cls-1" d="m15.48,7.16s-.01,0-.02-.02c-.19-.23-.43-.36-.72-.42-.22-.05-.43-.13-.64-.2-.04-.01-.07-.03-.1-.06-.09-.09-.19-.18-.29-.28-.03-.03-.05-.03-.09-.02-.11.03-.22.05-.34.08-.04,0-.07.03-.09.07-.06.12-.14.23-.2.35-.02.04-.05.06-.08.08-.12.05-.24.1-.37.15.05.09.1.18.14.27h2.8Z"/>
    </g>
  </g>
</svg>