<?xml version="1.0" encoding="UTF-8"?>
<svg id="Capa_2" data-name="Capa 2" xmlns="http://www.w3.org/2000/svg" viewBox="0 0 133.35 120.82">
  <defs>
    <style>
      .cls-1 {
        fill: #fff;
      }

      .cls-2 {
        fill: #ff1d25;
      }

      .cls-3 {
        fill: #fdde96;
      }

      .cls-4 {
        fill: #23ccfb;
      }
    </style>
  </defs>
  <g id="_04" data-name="04">
    <g>
      <g>
        <g>
          <path class="cls-4" d="m80.76,61.12c-.44-.52-.98-.94-1.6-1.23s-1.17-.57-1.69-.96c-8.18-6.18-13.47-15.99-13.47-27.03h0c0-.8.08-1.58.26-2.34.43-1.79.67-3.65.67-5.57v-.09c0-12.58-9.68-22.9-22-23.9h-3.96c-12.32,1-22,11.32-22,23.9v.09c0,1.92.24,3.78.67,5.57.19.76.26,1.54.26,2.33h0c0,11.06-5.29,20.87-13.47,27.05-.52.39-1.1.68-1.69.96-.62.29-1.16.72-1.6,1.23-.71.84-1.13,1.92-1.13,3.11,0,2.66,2.15,4.81,4.81,4.81h72.27c2.66,0,4.81-2.15,4.81-4.81,0-1.19-.42-2.27-1.13-3.11Z"/>
          <path class="cls-3" d="m40.08,86.95h-.08c-7.01-.02-12.09-3.07-14.5-4.88-1.85-1.39-2.22-4.02-.82-5.87,1.39-1.85,4.02-2.22,5.87-.82,1.57,1.19,4.89,3.18,9.47,3.19h.05c4.6,0,7.94-2,9.52-3.19,1.85-1.4,4.48-1.03,5.87.82,1.39,1.85,1.03,4.48-.82,5.87-2.42,1.83-7.53,4.88-14.57,4.88Z"/>
        </g>
        <g>
          <circle class="cls-1" cx="66.88" cy="22.15" r="22.15"/>
          <circle class="cls-2" cx="66.88" cy="22.15" r="13.53"/>
        </g>
      </g>
      <path class="cls-1" d="m133.35,72.59v-12.35c0-6.29-5.12-11.41-11.41-11.41h-2.83v-4.16c0-3.33-2.71-6.04-6.04-6.04h-4.98c-3.34,0-6.05,2.71-6.05,6.04v4.16h-20.43v-4.16c0-3.33-2.71-6.04-6.04-6.04h-4.98c-3.33,0-6.04,2.71-6.04,6.04v4.16h-2.38c-6.29,0-11.41,5.12-11.41,11.41v12.35c0,1.63.81,3.07,2.05,3.95-1.24.88-2.05,2.32-2.05,3.95v28.92c0,6.29,5.12,11.41,11.41,11.41h59.77c6.29,0,11.41-5.12,11.41-11.41v-28.92c0-1.63-.81-3.07-2.05-3.95,1.24-.88,2.05-2.32,2.05-3.95Z"/>
      <g>
        <path d="m128.5,60.25v12.35H55.6v-12.35c0-3.62,2.94-6.56,6.56-6.56h7.23v-9.01c0-.66.54-1.19,1.19-1.19h4.98c.66,0,1.19.54,1.19,1.19v9.01h30.12v-9.01c0-.66.54-1.19,1.2-1.19h4.98c.66,0,1.19.54,1.19,1.19v9.01h7.68c3.62,0,6.56,2.94,6.56,6.56Z"/>
        <path class="cls-4" d="m55.6,80.49v28.92c0,3.63,2.94,6.56,6.56,6.56h59.77c3.62,0,6.56-2.93,6.56-6.56v-28.92H55.6Zm33.12,27.29c0,.58-.47,1.04-1.04,1.04h-13.55c-.58,0-1.04-.47-1.04-1.04v-5.28c0-.58.47-1.05,1.04-1.05h13.55c.58,0,1.04.47,1.04,1.05v5.28Zm0-15.04c0,.58-.47,1.05-1.04,1.05h-13.55c-.58,0-1.04-.47-1.04-1.05v-5.28c0-.58.47-1.04,1.04-1.04h13.55c.58,0,1.04.47,1.04,1.04v5.28Zm22.3,15.04c0,.58-.47,1.04-1.04,1.04h-13.55c-.58,0-1.04-.47-1.04-1.04v-5.28c0-.58.47-1.05,1.04-1.05h13.55c.58,0,1.04.47,1.04,1.05v5.28Zm0-15.04c0,.58-.47,1.05-1.04,1.05h-13.55c-.58,0-1.04-.47-1.04-1.05v-5.28c0-.58.47-1.04,1.04-1.04h13.55c.58,0,1.04.47,1.04,1.04v5.28Z"/>
      </g>
    </g>
  </g>
</svg>